<svg xmlns="http://www.w3.org/2000/svg" width="314" height="406"><g fill="none" stroke-width="2"><path stroke="rgba(66,73,31,1)" d="M213.1 34.1q.8 2.2 2.4 4.2" vector-effect="non-scaling-stroke"/><path stroke="rgba(129,123,62,1)" d="m215.5 38.3 1.2 2.6a.2.2 12.6 0 1-.4.2c-5-6-9.7-11.1-16.2-15.5q-8.6-5.7-16.3 1.5-6.1 5.5-10.6 13.1l-2.3 3.6a.2.1 66 0 1-.3-.1q.5-4 2.8-8" vector-effect="non-scaling-stroke"/><path stroke="rgba(66,73,31,1)" d="M265.7 157.6q1.5 2.3.7 1.2" vector-effect="non-scaling-stroke"/><path stroke="rgba(192,200,157,1)" d="m266.4 158.8-.1 9a2.9 2.8-52.2 0 0 0 .7l1.7 7q1.5 5.7-.3 11a3 2.9-19.6 0 1-.4.8q-4.5 6.7-4.1 14.9 0 .9.5 1.5" vector-effect="non-scaling-stroke"/><path stroke="rgba(66,73,31,1)" d="M263.7 203.7q-.2.4-.2 1.4m-2.6 22.1q-.6.3-2.2.6-1.1.2-1.4 1.2" vector-effect="non-scaling-stroke"/><path stroke="rgba(133,146,106,1)" d="M257.3 229q-7-.6-11.3-1.5-1.8-.4-4.2-2a3.8 3.7 70.1 0 0-.9-.4q-6-2-12.5-.3l-9 2.9a4.2 4 35.6 0 1-1.4.2l-7.4-.2" vector-effect="non-scaling-stroke"/><path stroke="rgba(66,73,31,1)" d="M210.6 227.7q-1-.2-1.9 0" vector-effect="non-scaling-stroke"/><path stroke="rgba(163,118,52,1)" d="m208.7 227.8-4-1.1a.2.2 33.8 0 1-.2-.4l6.5-4.7" vector-effect="non-scaling-stroke"/><path stroke="rgba(192,195,90,1)" d="M215.5 38.3c6.5-2.9 13.4-7.2 20.7-4.5 3.9 1.4 6.2 3.4 10.7 2.9 2.7-.4 5-2 7.6-3.2 4.2-2 6.2 1.2 5.8 5-.5 4.3-2.7 9.8-1.3 14q.8 2.7 3.5 8.8 1.5 3.3 1.5 8.4 0 1.5-1.5 5.4-2.3 6-.3 11.8c1.2 3.4 3.5 8 3.3 12.5-.1 3.8-3.4 9.2-3.7 12.4-.5 6.3 2.8 14.8 3.4 18.5 1.3 6.8-.3 11.6-2.8 19.1-1.9 5.8-.2 11.1 1 17.6q1.3 6 1.2 11.2a7.6 7.5 59 0 1-.8 3.2l-3.6 7.4a1.6 1.3 72 0 0 0 .3q-1 4.3-.4 9.4l1.6 10.6c.9 5.3 1.3 12.2-4.3 14.6a2.7 2.7-57.7 0 1-1 .2q-4.7.2-6.2-.6c-6.6-2.9-11.1-5.3-16.5-3.3l-8.2 3q-6.7 2.5-14.2-1.4" vector-effect="non-scaling-stroke"/><path stroke="rgba(226,168,83,1)" d="m211 221.6 1.6-6.3a.1.1 74.1 0 0-.2-.1l-6 6.3" vector-effect="non-scaling-stroke"/><path stroke="rgba(246,214,107,1)" d="m206.5 221.5-8.7 5a6 5.5-66.4 0 1-1 .5l-8.7 2.8q-4.2 1.4-10.9 1.7c-12.2.5-21-5.8-30.2-13.9-3.2-2.8-5.4-6-7.9-9.2a.5.5 15.6 0 0-.9.5l2 5" vector-effect="non-scaling-stroke"/><path stroke="rgba(226,168,83,1)" d="m140.2 214 5.6 8.2a.3.3 69.4 0 1-.2.5q-2.8.3-5 1.4" vector-effect="non-scaling-stroke"/><path stroke="rgba(192,195,90,1)" d="M140.5 224.1q-4.5 1.8-9.2 2a3.2 3.2-38 0 1-1 0l-12.2-3.7c-8.5-2.5-13.3 2.3-19.3 4-4.2 1.2-7.3 1.8-9.5-2.4q-1-2-.5-5c1-5.3 3.7-10.4.9-15.6q-2.9-5.3-2.8-10c0-3.8 1.7-7 2.6-10.9 1.4-6.2-.3-11-2.6-16.6q-2-5-1.8-10.2c.2-4.6 1.8-8.8 3.1-13 2-6.6 1.6-12.8-1.6-18.8-2.3-4.3-4.9-8.7-4.6-13.4q.3-4.8 1.6-10.9.8-3.3-.2-8.1a3.6 3.4 27 0 0-.4-1c-2-3.9-4.2-7-5.2-10C76 75 77 68 78.3 62.4a3.8 3.6 52 0 0 .1-1q-.1-3-.7-4-2.6-5.4-5.5-8.7c-2.6-3.1-4.4-6.3-2-9.8a2.9 2.9 18 0 1 2.4-1.2c6 .2 12.6 2.7 17.4 2.9 4.2 0 6.8-1.8 10-4q1.7-1 3.7-1.3 2.5-.3 3.8 0l10.9 2.8" vector-effect="non-scaling-stroke"/><path stroke="rgba(255,245,146,1)" d="M127.4 30q2.3 0 7.2-1.4c5.4-1.5 16 1.1 19 6.7" vector-effect="non-scaling-stroke"/><path stroke="rgba(129,123,62,1)" d="m153.7 35.3-2 9.7a.6.6-38.5 0 1-.8.4q-3-.6-6 0a.7.7-11.7 0 1-.8-.6l-2.4-10.5a.6.6-11 0 0-.7-.5l-1.7.4a.8.8-12 0 0-.6 1l2 10.3a.4.4-23.8 0 1-.2.4l-6.1 4a.7.7 24.6 0 1-1-.1l-5.8-9a.4.4 63.3 0 0-.5 0l-2 1.3a.5.5-79.4 0 0-.2.7l6.2 9.3a.7.7-41.7 0 1 0 .8q-8.2 9.7-9.3 23.6-.8 9.1.8 17.4" vector-effect="non-scaling-stroke"/><path stroke="rgba(226,168,83,1)" d="M122.6 93.9q-1.1 1.6-4.5 2.1-4.3.7-5 1-8.3 2.6-12.3 11" vector-effect="non-scaling-stroke"/><path stroke="rgba(254,235,120,1)" d="M100.8 108q-2.8 5.4-.5 12.6 1.6 4.7 4.2 8.8" vector-effect="non-scaling-stroke"/><path stroke="rgba(226,168,83,1)" d="M104.5 129.4q2.2 2.3 5 3.4 4 1.8 6.9 1.7" vector-effect="non-scaling-stroke"/><path stroke="rgba(129,123,62,1)" d="M116.4 134.5q3.3 24.7 11.6 42.3 9 19 19 32.6 4.8 6.7 8.3 9.9 14.7 13.3 34.2 7.3c11.4-3.6 19.3-14.7 23.8-25 10.6-24 17.3-49.4 20.7-75.3" vector-effect="non-scaling-stroke"/><path stroke="rgba(226,168,83,1)" d="M234 126.3c5.2-.3 9.7.2 14.5-3" vector-effect="non-scaling-stroke"/><path stroke="rgba(246,214,107,1)" d="M248.5 123.2q3-1.7 4.2-5a.5.5 16.4 0 0-.3-.6c-3.3-.8-5.8-.5-11.9-.2q-4.3.2-9.6-2.2" vector-effect="non-scaling-stroke"/><path stroke="rgba(129,123,62,1)" d="M231 115.2q1.5-2.6 2-6" vector-effect="non-scaling-stroke"/><path stroke="rgba(255,245,146,1)" d="M233 109.2q6.4-.1 11.8-2.7" vector-effect="non-scaling-stroke"/><path stroke="rgba(212,178,80,1)" d="M244.8 106.5q1.3.2 2-.2.8-.7.2-1.8-.6-.8-2-1" vector-effect="non-scaling-stroke"/><path stroke="rgba(255,245,146,1)" d="M245 103.5q-6.6-5.5-14.3-1.8" vector-effect="non-scaling-stroke"/><path stroke="rgba(226,168,83,1)" d="M228.8 99.9q0-1.3 1.2-1.9c9.2-4.1 18-.2 23.4 8a.3.3 59 0 0 .4 0 .3.3-27.5 0 0 .1-.3q-2.8-6.3-8.4-9-10-4.9-21 1.9" vector-effect="non-scaling-stroke"/><path stroke="rgba(129,123,62,1)" d="M224.6 98.6q3.7-21.2-5.8-38-4.5-8-12.4-13 1.3-9 1.7-10.6a.3.3 8.6 0 0-.3-.4h-2.7a.4.4 4.6 0 0-.4.3l-1.3 8.6a.4.4-21 0 1-.4.3l-7-1.1a.8.8 1.5 0 1-.6-.7L194 33a.5.5-6.4 0 0-.6-.5l-2 .3a.6.6-7.4 0 0-.6.7l1.4 11a.5.5 72.7 0 1-.3.5l-6 3.1a.6.6-30 0 1-.8-.2l-5.8-8.8a.7.7 50.5 0 0-1-.2l-1.2.8a1 1 58.1 0 0-.3 1.3l5.5 9.2a.8.8 47.7 0 1 0 1c-.7.9-1.8 1.7-2.6 2.9q-3.8 5.4-5.5 11.7a.2.2 40 0 1-.4 0 36 36 0 0 0-18.7-19.3.7.7 16.3 0 1-.4-.8l1.9-9.4" vector-effect="non-scaling-stroke"/><path stroke="rgba(255,245,146,1)" d="M156.6 36.3q2.2 3.1 6.2 3.4" vector-effect="non-scaling-stroke"/><path stroke="rgba(207,199,83,1)" d="M162.2 35q1.5 2.5 5.3 1.6 3.3-.8 6-.8" vector-effect="non-scaling-stroke"/><path stroke="rgba(68,39,18,1)" d="M45 199.6q-.9-1.3-1.8 0" vector-effect="non-scaling-stroke"/><path stroke="rgba(70,74,77,1)" d="M46.8 192.2q1.7-2.1-3.4-4.8a.8.8 41.3 0 0-.9 0q-.9.7-1.2 1.6" vector-effect="non-scaling-stroke"/><path stroke="rgba(129,123,62,1)" d="m41.3 189-17.4 25.2a2.2 2 71.9 0 0-.3.7q-.7 2.4 1.2 3.8C32.2 224.4 42 229 50 232.3a.7.7 32.9 0 1 .3 1.2l-5.5 5.9" vector-effect="non-scaling-stroke"/><path stroke="rgba(129,123,62,1)" d="M44.7 239.8q-3 3.6-3 8a2.7 2.6-57.6 0 0 .3 1c2.3 5.5 9.2 7.3 14.5 5.9q2.7-.7 2.6-3.3c-.2-4.6-8.6-5.8-11.8-5a.3.3 17.1 0 1-.4-.1.3.3 67.9 0 1 .1-.4q3-1.6 6.3-1.2a.6.6 79.5 0 0 .6-.5q.3-3.2-.8-5.8a.2.2-76.3 0 1 .4-.3q2.4 3 1.9 6.6a.7.7-75.1 0 0 .4.8q3.4 1.3 5.5 5.3a4 3.8-84.5 0 0 1 1.1q4.2 3.8 2.6 10a.1.1-36.6 0 1-.3 0q.3-4.2-2.6-8.3a.9.9 36.6 0 0-1.5.2q-.8 2.1-3.5 2.6a.9.9-26 0 0-.7.7c-1 5.3 3.5 13 9.8 11.5a2 2 17.6 0 0 .8-.4q2.5-2 3.1-3.2 4-7.1 3.7-16.3c-.4-11.8-7-17.9-17.7-20.8q-1.2-.3-4.5-2l-19.3-9.7a.8.8-61.6 0 1-.3-1l4.3-7.4" vector-effect="non-scaling-stroke"/><path stroke="rgba(89,107,118,1)" d="M57.3 222.8q-.3 1.6 0 3.3a1 1 4.8 0 0 .7.7c1.6.6 3.6 1 5 1.7q8 3.9 11.2 12.6a2 2 88.4 0 0 1.3 1.2l11.7 3.7a.4.4-81.3 0 0 .5-.4l.1-14.2" vector-effect="non-scaling-stroke"/><path stroke="rgba(70,74,77,1)" d="M89.4 231.4v1.1" vector-effect="non-scaling-stroke"/><path stroke="rgba(129,128,129,1)" d="M89.4 232.5v13.6a.4.4-1.4 0 0 .4.4l73.7-2.8" vector-effect="non-scaling-stroke"/><path stroke="rgba(113,115,116,1)" d="M163.5 243.7q-.1-.3.5-.1" vector-effect="non-scaling-stroke"/><path stroke="rgba(70,74,77,1)" d="M164 243.6h1.3a1.1 1-85.8 0 0 .7-.6l3-6.7" vector-effect="non-scaling-stroke"/><path stroke="rgba(115,18,22,1)" d="M170.1 236.4q.2.9-.4 2a229 229 0 0 0-6.1 15.5.8.7-57.2 0 0 .1.8l11 11a1.2 1.2 40.9 0 0 1.9 0l8.8-11.8a1.3 1.3-42.2 0 0 .1-1.4l-9.2-15.6" vector-effect="non-scaling-stroke"/><path stroke="rgba(99,46,23,1)" d="M176.3 237q1.3-.7 2.5 1" vector-effect="non-scaling-stroke"/><path stroke="rgba(129,128,129,1)" d="m178.8 238 2.8 4.5a1 1-16.6 0 0 .8.4l73.3-2.8a.9.9-89.7 0 0 .8-.8l.5-9.4" vector-effect="non-scaling-stroke"/><path stroke="rgba(68,39,18,1)" d="m281.2 214.7-4.9-10a1.2 1.2 69 0 0-1.4-.6q-5.6 1.6-11.4 1" vector-effect="non-scaling-stroke"/><path stroke="rgba(129,128,129,1)" d="M263.7 203.7q15 .6 23.5-11a1.2 1.2-41.6 0 0 .1-1.3q-9.2-16.3-21-32.6" vector-effect="non-scaling-stroke"/><path stroke="rgba(68,39,18,1)" d="M285.3 197.8q-2 1.2-.7 2m-8.3 67.7q-1.7.2-1.4 2" vector-effect="non-scaling-stroke"/><path stroke="rgba(37,15,11,1)" d="M257.5 271.4q0-.5-.3-.7a.4.4 39 0 0-.7 0q-.5.9.1 1.4" vector-effect="non-scaling-stroke"/><path stroke="rgba(35,35,34,1)" d="M238.3 377.2q-.3-.7-1.2-.6a1 .9 11.2 0 0-.6.4q-2.9 4.4-7.3 6.1-9.2 3.5-18.6.2l-7-2.6a.3.3 89.5 0 0-.3.4c.6 1.6 4.6 3.6 7 5a4.3 4.2-21.7 0 0 1 .3q2.1.6 4 1.7" vector-effect="non-scaling-stroke"/><path stroke="rgba(35,42,19,1)" d="M211.6 387.8q-1.8-1.3-3.8-1.7-.6-.1-1 .5 0 .2.2.3" vector-effect="non-scaling-stroke"/><path stroke="rgba(37,15,11,1)" d="m84.7 379.3-.3-.3a.5.5 18.4 0 0-.8.4q.2 5.8-5.7 6.4a.6.6 77.3 0 0-.5.8q.3 1 1 1.4.5.3 1.8-.3 1.4-.7 1.9-.1M57.3 386q1-1 .2-1.8" vector-effect="non-scaling-stroke"/><path stroke="rgba(68,39,18,1)" d="M57.6 384q1-2.5-.9-2.4" vector-effect="non-scaling-stroke"/><path stroke="rgba(29,21,13,1)" d="M45.5 346.2q-4.9 2.4-6.2 6a.6.6-13.7 0 0 1 .7q2.4-2.6 5.6-4.4 1-.6 4-.7 2.6-.1 4.6-1.2" vector-effect="non-scaling-stroke"/><path stroke="rgba(196,201,204,1)" d="M257 230a39.8 39.8 0 0 1-20.5-2.7c-4.7-1.6-9.4.6-14.4 2q-4.8 1.5-13.4.6" vector-effect="non-scaling-stroke"/><path stroke="rgba(70,74,77,1)" d="M208.7 229.9q1.6-1.3 1.9-2.2" vector-effect="non-scaling-stroke"/><path stroke="rgba(226,173,150,1)" d="M207.7 228.3q-1.3-1.4-3.4-1.1a1.8 1.8 21.5 0 0-1 .4l-5.6 4.6" vector-effect="non-scaling-stroke"/><path stroke="rgba(99,46,23,1)" d="M197.7 232.2q-.8-.3-1.5-.1-.7.2-.6.6 0 .4.6.7" vector-effect="non-scaling-stroke"/><path stroke="rgba(226,173,150,1)" d="M196.2 233.4c-2.5-.3-4.7 1.2-6.9 2.2a1.1 1.1-64.1 0 1-.2 0l-10.3 2.4" vector-effect="non-scaling-stroke"/><path stroke="rgba(99,46,23,1)" d="m155.8 231.2-.2-.4a.5.5 1.7 0 0-.3-.3q-.4-.2-.8 0" vector-effect="non-scaling-stroke"/><path stroke="rgba(129,123,87,1)" d="M156.6 36.3q-.9-1-3-1" vector-effect="non-scaling-stroke"/><path stroke="rgba(163,118,52,1)" d="M140.5 224.1q8 .4 14 6.5" vector-effect="non-scaling-stroke"/><path stroke="rgba(192,200,157,1)" d="m153.8 231.1-10.8-3q-2.3-.7-4 1.1" vector-effect="non-scaling-stroke"/><path stroke="rgba(66,73,31,1)" d="M139 229.2q-2.6-1.3-3.4 0" vector-effect="non-scaling-stroke"/><path stroke="rgba(133,146,106,1)" d="M135.6 229.1q-.9 0-3.2.4-4.6.8-9.1-.4l-8.6-2.1c-2.3-.8-7.2-1-8.7-.4q-8 3.6-16.6 4.8" vector-effect="non-scaling-stroke"/><path stroke="rgba(66,73,31,1)" d="M89.4 231.4q-1-1.1-1.6 0" vector-effect="non-scaling-stroke"/><path stroke="rgba(153,179,147,1)" d="M87.8 231.4q-2.3-.3-3.7-1.4" vector-effect="non-scaling-stroke"/><path stroke="rgba(133,146,106,1)" d="m84 230-4-4.2a1.3 1.2 73.6 0 0-.7-.3 7.2 7.2 0 0 0-4.7.1c-2.8 1-5 .9-7.2-1-1.7-1.6-3.2-3.5-5.2-4.3q-2.6-.9-5.1.5" vector-effect="non-scaling-stroke"/><path stroke="rgba(66,73,31,1)" d="M57 220.8q-1.1-.9-2.1-.2a.7.7-17.5 0 0-.4.6l.2 3a.7.7-4.3 0 1-.7.7q-.9 0-1.5-.3m-1-22.9c3.8.3 8.1-.2 10-3.7Q69 184.2 72 169.7c.8-4 .7-10-3-12.7q-3.1-2.4-6-2-4.8.5-11 4.8" vector-effect="non-scaling-stroke"/><path stroke="rgba(217,137,69,1)" d="m248.5 123.2.5-.7a.2.2 4.6 0 0-.3-.4q-12.9 5.8-22.2-2.4" vector-effect="non-scaling-stroke"/><path stroke="rgba(59,26,28,1)" d="M230 125q-3 2.7-6.5 4.8-7.4 4.6-16.5 8a.6.6 79.3 0 0-.4.6l.8 19.7a.8.8 88 0 1-.8.9l-20.5.8a1.6 1.6-1.2 0 1-1.7-1.6v-15.6a.6.6-45 0 0-.5-.5h-3.2a.5.5-1 0 0-.5.5l.6 16a1.4 1.4 85.2 0 1-1.2 1.5l-4.7.5a.4.4 37.6 0 0-.2.7q1 .7 1.5 1.7 8.8 14 2 29l-.3 2q-.2 1.4-2.5 1.7" vector-effect="non-scaling-stroke"/><path stroke="rgba(92,39,42,1)" d="m175.4 195.7-7.1 3a4.5 4.5-49.6 0 1-2.8.1q-10.3-2.4-19.9 3.3a.9.8-32.7 0 0-.3 1.2q3.6 5.2 8.3 10.5a32.7 32.7 0 0 0 40.2 8.7" vector-effect="non-scaling-stroke"/><path stroke="rgba(59,26,28,1)" d="M193.8 222.5q6-4.7 7.6-6.3 4.7-4.8 10.7-16.3 3-5.6 7.8-20.4 7-21.2 12-48 .3-2 0-5.7" vector-effect="non-scaling-stroke"/><path stroke="rgba(212,177,105,1)" d="M245 103.5q-1.7 0-1.8 1 0 1.3 1.7 2" vector-effect="non-scaling-stroke"/><path stroke="rgba(99,46,23,1)" d="M234 126.3q-.5-.4-2-.5" vector-effect="non-scaling-stroke"/><path stroke="rgba(156,71,49,1)" d="M232 125.8q-.6-.8-2-.9" vector-effect="non-scaling-stroke"/><path stroke="rgba(99,46,23,1)" d="M230 125q-1.4-.8-2.1-.4" vector-effect="non-scaling-stroke"/><path stroke="rgba(226,168,83,1)" d="M139.5 121.6q-2 .7-3.6 3.5a.8.8-46 0 0 0 .8l.2.3q0 .3-.3.4h-.5" vector-effect="non-scaling-stroke"/><path stroke="rgba(99,46,23,1)" d="M135.3 126.6q-.8-.1-1 .2-6.5 7.4-17.9 7.7" vector-effect="non-scaling-stroke"/><path stroke="rgba(217,137,69,1)" d="M104.3 128.7q-.1-.8 1-.3 12.6 6.4 24-.3a3.6 3.5 6.5 0 0 .8-.6q4.9-5 6-7.1 2.6-5.4.7-11.4-3-8.8-12.3-10.8-4-1-8.5.5" vector-effect="non-scaling-stroke"/><path stroke="rgba(225,158,81,1)" d="M116 98.7q-3.4.6-5.7 2-4 2.4-9.5 7.2" vector-effect="non-scaling-stroke"/><path stroke="rgba(129,123,62,1)" d="m161 34.8 4.3 7.2a.3.2-31.4 0 1-.1.3.3.2 53 0 1-.3 0l-2.1-2.6" vector-effect="non-scaling-stroke"/><path stroke="rgba(129,123,87,1)" d="M162.8 39.7c-8.6-10-22.6-22.4-35.4-9.8" vector-effect="non-scaling-stroke"/><path stroke="rgba(129,123,62,1)" d="M127.4 30q-6.6 6.3-10.9 16.2a.2.2 60.1 0 1-.4-.1q.4-3.9 2.3-8" vector-effect="non-scaling-stroke"/><path stroke="rgba(217,137,69,1)" d="M206.5 221.5q-12.7 12-29.6 12.4-8 .2-14.1-2.6a55.7 55.7 0 0 1-21.4-18 .8.8 45 0 0-1.2 0v.7" vector-effect="non-scaling-stroke"/><path stroke="rgba(99,46,23,1)" d="M224.6 98.6q2-.3 4.2 1.3" vector-effect="non-scaling-stroke"/><path stroke="rgba(129,123,87,1)" d="M230.7 101.7q2.4 3.6 2.4 7.5" vector-effect="non-scaling-stroke"/><path stroke="rgba(99,46,23,1)" d="M226.5 119.7q-.6.1-1.9 1.3" vector-effect="non-scaling-stroke"/><path stroke="rgba(129,123,62,1)" d="M224.6 121a69.8 69.8 0 0 1-35.9 10.2" vector-effect="non-scaling-stroke"/><path stroke="rgba(128,113,60,1)" d="M188.7 131.2h-.7" vector-effect="non-scaling-stroke"/><path stroke="rgba(129,123,62,1)" d="M178.4 129.6q0-.6 1.1-.5 6.4.7 11.9.4" vector-effect="non-scaling-stroke"/><path stroke="rgba(120,92,48,1)" d="M191.4 129.5q17.4-1 31.4-9.8a16 16 0 0 0 7.1-8.2q.8-2.2.3-4.2" vector-effect="non-scaling-stroke"/><path stroke="rgba(129,123,62,1)" d="M230.2 107.3q-1-4-3.8-5.8a8.2 8.2 0 0 0-8.6.8c-10.7 8.9-21.8 19-36.7 19 2-.3 4.7-1.3 8-2.1a.3.3-34 0 0 0-.6q-7.9-5.8-11.8-15.1a.3.3-47 0 0-.6 0 37.2 37.2 0 0 1-9.9 16.5c-7.8 7-18.4 7.7-27.3 1.6" vector-effect="non-scaling-stroke"/><path stroke="rgba(99,46,23,1)" d="M139.5 121.6q-1.8-1.7-.5-2.3" vector-effect="non-scaling-stroke"/><path stroke="rgba(113,115,116,1)" d="M139 119.3c10.4 7.8 23 5.7 30.3-4.8" vector-effect="non-scaling-stroke"/><path stroke="rgba(129,128,129,1)" d="M169.3 114.5a50.4 50.4 0 0 0 1.2-51.7Q164 50.6 151.6 47" vector-effect="non-scaling-stroke"/><path stroke="rgba(113,115,116,1)" d="M151.6 47q-8.8-1.2-14.7 3.2c-13.6 10.1-16 30.1-12 45.7" vector-effect="non-scaling-stroke"/><path stroke="rgba(99,46,23,1)" d="M124.8 95.9q-1.6.2-2.2-2" vector-effect="non-scaling-stroke"/><path stroke="rgba(129,128,129,1)" d="m207.7 228.3-6 5.4a1 1-63 0 1-.9.2q-1.3 0-3.1-1.7" vector-effect="non-scaling-stroke"/><path stroke="rgba(129,128,129,1)" d="m196.2 233.4 4.3 2.6a1.1 1.1-50.4 0 0 1.4-.2l6.8-6" vector-effect="non-scaling-stroke"/><path stroke="rgba(157,180,193,1)" d="M84 230q-4.6-3.1-10.1-3.1c-2.8 0-6.2-.2-7.9-1.4q-3.9-2.8-8.7-2.7" vector-effect="non-scaling-stroke"/><path stroke="rgba(181,188,191,1)" d="m164 243.6 2-4.2a1.5 1.4-62.9 0 0-.6-1.9q-2.8-1.5-5.6-2a2 2-26.9 0 1-.6-.1l-5-2.5" vector-effect="non-scaling-stroke"/><path stroke="rgba(196,201,204,1)" d="M139.7 232q-4.2-1-6.1-.7-5.7 1-11.4.1a6.8 6.7 57.7 0 1-1.4-.3q-6.9-2.5-13-2.5a4 3.8-52.7 0 0-1 .2q-3.3.9-7 2.3-3 1.3-10.4 1.4" vector-effect="non-scaling-stroke"/><path stroke="rgba(240,242,243,1)" d="M147 236.2q-3.5 1-7 1c-7.2 0-22.2-.4-35.3.7a.3.3-2.5 0 0-.3.2v.3a.5.5 1.3 0 0 .5.5q21.9 1.4 35.6 1.5 10.7 0 22.3-1.6a1.1 1.1 26.6 0 1 1.2 1.3l-.5 3.6" vector-effect="non-scaling-stroke"/><path stroke="rgba(113,115,116,1)" d="m154.3 232.9-3.6 4.2a1.4 1.4-54.1 0 1-1.8.3l-1.9-1.2" vector-effect="non-scaling-stroke"/><path stroke="rgba(129,128,129,1)" d="m153.8 231.1-4.1 4.3a.6.6-52 0 1-.8.1l-10-6.3" vector-effect="non-scaling-stroke"/><path stroke="rgba(149,63,68,1)" d="M193.8 222.5q5.1-7 1.9-15.4c-3.2-8.5-11.5-12.5-20.3-11.4" vector-effect="non-scaling-stroke"/><path stroke="rgba(246,214,107,1)" d="M230.2 107.3q-7.3 11-20.1 15.9-6.4 2.5-14.7 4-2.2.4-4 2.3" vector-effect="non-scaling-stroke"/><path stroke="rgba(224,220,87,1)" d="m178.4 129.6-1.6-1.2a.3.3 85.4 0 0-.3.4l2.9 3a3.5 3.5 75.8 0 0 1.5.8q2.3.7 5 .5" vector-effect="non-scaling-stroke"/><path stroke="rgba(254,235,120,1)" d="M185.8 133q-4.4.7-8-1.2h-.1a.1.1 41.8 0 0 0 .2c5.3 3.5 10 2.6 15.9 1.6a.2.2-50.6 0 0 0-.5l-6 .3a.2.2 22.7 0 1-.2-.4q.8-.8 1.3-1.8" vector-effect="non-scaling-stroke"/><path stroke="rgba(226,168,83,1)" d="M224.6 121q2.2 1.5 3.3 3.6" vector-effect="non-scaling-stroke"/><path stroke="rgba(129,123,62,1)" d="M227.9 124.6c-19 15-44.7 17.9-68 13q-13.6-3-23.7-10.8-.3-.2-1-.2" vector-effect="non-scaling-stroke"/><path stroke="rgba(240,242,243,1)" d="M151.6 47q-6.8 3.4-12 7.3-.9.7-5.2 5.5a.3.1-49.8 0 1 0-.3q4.8-6.1 11.8-10.2V49h-.3c-18 9-21.9 30.8-16.8 48.4m40.2 17.1-7.3 2.3q-6.6 2.2-13.4.8-6.9-1.4-9.3-8" vector-effect="non-scaling-stroke"/><path stroke="rgba(226,173,150,1)" d="M139.3 109.5q-3-8.2-10.2-12" vector-effect="non-scaling-stroke"/><path stroke="rgba(245,204,106,1)" d="m104.3 128.7-1.7-5.7a.6.6 86.8 0 1 .6-.7c11.1 2 20.7 3.1 29.3-5.8a2 1.9 65.1 0 0 .5-1.4q-1-15.8-17-16.4" vector-effect="non-scaling-stroke"/><path stroke="rgba(224,220,87,1)" d="M242.5 44.2a10.7 8.4-103.3 0 0-5.7 12.4 10.7 8.4-103.3 0 0 10.6 8.5 10.7 8.4-103.3 0 0 5.7-12.4 10.7 8.4-103.3 0 0-10.6-8.5M90 57q-1.3 5.4 1.7 9.8 4.5 6.7 11.8 3.7" vector-effect="non-scaling-stroke"/><path stroke="rgba(207,199,83,1)" d="M103.5 70.5q3-3 3.4-8.5.5-4.6-1-8.2-.4-.8-2.4-2.6a2.7 2.5-14.4 0 0-.8-.4q-9.9-3.3-12.8 6.2" vector-effect="non-scaling-stroke"/><path stroke="rgba(176,173,48,1)" d="M103.5 70.5c-.7-5.7-.3-11.5-5.7-15.1a1.7 1.7-45.5 0 0-1.9 0l-3.5 2.4q-1.6 1-2.5-.8" vector-effect="non-scaling-stroke"/><path stroke="rgba(224,220,87,1)" d="M96 77a7 6-100.8 0 0-4.5 8 7 6-100.8 0 0 7 6 7 6-100.8 0 0 4.6-8.1A7 6-100.8 0 0 96 77" vector-effect="non-scaling-stroke"/><path stroke="rgba(226,168,83,1)" d="M238 111a2.1 1.4-172.2 0 0 1.9 1.8 2.1 1.4-172.2 0 0 2.3-1.1 2.1 1.4-172.2 0 0-2-1.8 2.1 1.4-172.2 0 0-2.2 1.2" vector-effect="non-scaling-stroke"/><path stroke="rgba(224,220,87,1)" d="M235.2 171.8a13.2 10.2 74.2 0 0 7 12 13.2 10.2 74.5 0 0 9.6-.4" vector-effect="non-scaling-stroke"/><path stroke="rgba(207,199,83,1)" d="M251.8 183.4a13.2 10.1 74.9 0 0 3.8-6.1 13.2 10.2 74 0 0 0-7.4 13.1 10.2 74.3 0 0-5.7-8.8 13.2 10.2 74.3 0 0-9.6-1 13 10.2 73.8 0 0-2.8 2.4 13.2 10.2 74.3 0 0-2.3 9.3" vector-effect="non-scaling-stroke"/><path stroke="rgba(176,173,48,1)" d="M251.8 183.4c1.2-7.6 0-15.7-8.6-18.1a1.8 1.8-59 0 0-1.7.4l-6.3 6" vector-effect="non-scaling-stroke"/><path stroke="rgba(224,220,87,1)" d="M99.1 173.3q.3 3.3 1.5 4.9 4.1 5.2 9.2 2" vector-effect="non-scaling-stroke"/><path stroke="rgba(207,199,83,1)" d="M109.8 180.3q3.7-6.2.5-11.8a.8.8 86 0 0-.4-.3l-3-1.5a.9.8 55 0 0-.4-.1c-4.4.4-8.2 1.6-7.4 6.7" vector-effect="non-scaling-stroke"/><path stroke="rgba(176,173,48,1)" d="m109.8 180.3-.7-5.8a3.2 3.2-1.4 0 0-3-2.8q-3.3-.2-7 1.6" vector-effect="non-scaling-stroke"/><path stroke="rgba(224,220,87,1)" d="M98 199.5a15.2 12 82.6 0 0 2.7 12 15.2 12 82.3 0 0 9.3 6.2 15.2 12 82.8 0 0 8-3.1" vector-effect="non-scaling-stroke"/><path stroke="rgba(207,199,83,1)" d="M118 214.6a15.2 12 82.3 0 0 4.1-10.2 15.2 12 82.4 0 0-4.3-12.9 15.2 12 82.6 0 0-11.9-3.5 15.2 12 82.4 0 0-7.9 11.5" vector-effect="non-scaling-stroke"/><path stroke="rgba(176,173,48,1)" d="M118 214.6c-1-6.6-.2-13.6-7.2-17-5.7-2.9-9-.1-12.3 4.6a.2.2 61.4 0 1-.4 0v-2.7" vector-effect="non-scaling-stroke"/><path stroke="rgba(224,220,87,1)" d="M234.8 198.2a7.8 6 86.6 0 0 1.7 9 7.8 6 86.3 0 0 6.9 1.1" vector-effect="non-scaling-stroke"/><path stroke="rgba(207,199,83,1)" d="M243.4 208.3a8 6 87 0 0 1.8-2 7.8 6 86.4 0 0 .5-8.1 7.8 6 86.5 0 0-5.2-4.5 7.8 6 86.7 0 0-5.7 4.5" vector-effect="non-scaling-stroke"/><path stroke="rgba(176,173,48,1)" d="M243.4 208.3 241 200a1 1 75.5 0 0-1.3-.7l-4.1 1a.5.5-8.7 0 1-.6-.5l-.2-1.6" vector-effect="non-scaling-stroke"/><path stroke="rgba(129,128,129,1)" d="M178.3 84q.5 7.7-.7 15.1a2.3 2.3 39.4 0 0 .1 1.2q4 10.5 12.6 17.1a2.3 2.3-36 0 0 2.2.4 64.8 64.8 0 0 0 22.4-16.4q3-3 7.7-3.7a.8.8-85.2 0 0 .7-.6q.4-1.3.6-8.6c.4-15-5.6-33.2-20-40.2" vector-effect="non-scaling-stroke"/><path stroke="rgba(113,115,116,1)" d="M204 48.3q-6.2-3-12.4-1c-8.8 3-13.9 11.6-16.2 20.2a5 5-47.3 0 0 0 3q2.3 6.2 3 13.5" vector-effect="non-scaling-stroke"/><path stroke="rgba(240,242,243,1)" d="M204 48.3c-10.2-.4-19.4 8-22.7 17-1.8 5-2.1 12.6-3 18.7" vector-effect="non-scaling-stroke"/><path stroke="rgba(98,113,47,1)" d="M49.5 72.6q-5.6 9.8-2.3 20 2.3 7.2 9.6 6.5" vector-effect="non-scaling-stroke"/><path stroke="rgba(114,130,60,1)" d="M56.8 99c8.6-4 14.2-14.8 11.9-24.4-1.3-5.1-4.7-9-10-8.9-4.4.2-7 3.1-9.2 6.9" vector-effect="non-scaling-stroke"/><path stroke="rgba(83,99,48,1)" d="M56.8 99q-3-4.8-4.2-8.8c-1.3-4.4-.6-11.4 3.6-14.2 4.5-3 8.3-.3 11.7 2.6a.3.3-71 0 0 .4-.2c-.7-11.7-11.7-14.7-18.8-5.8" vector-effect="non-scaling-stroke"/><path stroke="rgba(114,130,60,1)" d="M59.9 107a8 5.4-78.4 0 0-6.9 6.6 8 5.4-78.4 0 0 3.7 9 8 5.4-78.4 0 0 6.9-6.8 8 5.4-78.4 0 0-3.7-8.9m5.9 39.7q3.3.5 4.2.2 2.6-.8 4.9-4.4 6.4-10.3 1.8-19.3" vector-effect="non-scaling-stroke"/><path stroke="rgba(98,113,47,1)" d="M76.7 123q-2.9-3-6.2-2.5c-4.7.9-8 6-8.9 10.4q-1.8 9.3 4.2 15.7" vector-effect="non-scaling-stroke"/><path stroke="rgba(83,99,48,1)" d="m76.7 123 1.3 6.5a.7.6-77.4 0 1-1 .7l-3.1-2.4a2.4 2.3 48.8 0 0-2.6-.2q-5.7 3.3-5.7 10 0 1.3 1.5 6.5.5 1.6-1.3 2.5" vector-effect="non-scaling-stroke"/><path stroke="rgba(114,130,60,1)" d="M70.1 206.8c10-1.3 10.8-13.2 8-20.4-.7-2-1.6-2.6-3.6-2.3q-5 .6-6.7 4.7-4 9 .3 17a2 2 72.6 0 0 2 1" vector-effect="non-scaling-stroke"/><path stroke="rgba(129,128,129,1)" d="M143.7 71.2A19.2 13.3-97.1 0 0 133 91.9a19.2 13.3-97.1 0 0 15.6 17.4 19.2 13.3-97.1 0 0 10.8-20.7 19.2 13.3-97.1 0 0-15.6-17.4" vector-effect="non-scaling-stroke"/><path stroke="rgba(129,128,129,1)" d="M194.6 68.4A18.3 13-94.6 0 0 183 87.6a18.3 13-94.6 0 0 14.4 17.2A18.3 13-94.6 0 0 209 85.6a18.3 13-94.6 0 0-14.4-17.2" vector-effect="non-scaling-stroke"/><path stroke="rgba(69,106,121,1)" d="M184.5 82.3a17.1 11.7 85.3 0 0 7.5 20 17.1 11.8 85.3 0 0 9.3 0 17 11.8 84.4 0 0 3.2-3 17 11.7 85.2 0 0 3-15.6" vector-effect="non-scaling-stroke"/><path stroke="rgba(35,74,102,1)" d="M207.5 83.7a17 11.7 85.3 0 0-7.6-12.8 17 11.7 85.3 0 0-9.3.1 17 11.8 85.2 0 0-6.1 11.3" vector-effect="non-scaling-stroke"/><path stroke="rgba(35,74,102,1)" d="M201 81.8q-1.4-4.4-5.3-5.7-2-.7-2.6.5" vector-effect="non-scaling-stroke"/><path stroke="rgba(161,201,228,1)" d="M193.1 76.5q-4.3-.5-4.4 3.5" vector-effect="non-scaling-stroke"/><path stroke="rgba(101,179,220,1)" d="M188.7 80q-2 1.4-4.2 2.3" vector-effect="non-scaling-stroke"/><path stroke="rgba(69,106,121,1)" d="M201 81.8q2.3 5.8.2 11.1c-1.1 3-3.7 5.3-7 4.2-5-1.7-6.3-9.5-5.6-14.3a.4.4 19.4 0 1 .6-.3l.3.2" vector-effect="non-scaling-stroke"/><path stroke="rgba(129,128,129,1)" d="M189.5 82.7q1 1.4 2.6 1a1.9 1.8-71.9 0 0 .8-.5q3.9-3.5.2-6.7" vector-effect="non-scaling-stroke"/><path stroke="rgba(69,106,121,1)" d="M134.2 84.8a18 12 82.7 0 0 3.4 16.9 18 12 82.6 0 0 5.4 5.3 18 12 82.6 0 0 9.6-.7 18 12 82.7 0 0 5.6-12.8 18 12 82.8 0 0-.7-7.7" vector-effect="non-scaling-stroke"/><path stroke="rgba(35,74,102,1)" d="M157.5 85.8a18 12 82.7 0 0-7.6-12 18 12 82.6 0 0-10.1.2 18 12 82.7 0 0-5.6 10.8" vector-effect="non-scaling-stroke"/><path stroke="rgba(35,74,102,1)" d="M150.8 82.8q-2.7-4-7.2-3.6-.4 0-.2.6" vector-effect="non-scaling-stroke"/><path stroke="rgba(161,201,228,1)" d="M143.4 79.8q-1.8-1-4 .5" vector-effect="non-scaling-stroke"/><path stroke="rgba(69,106,121,1)" d="M150.8 82.8c2.7 4.1 2.6 6.7 2.4 12.2a2.9 2.9-33.5 0 1-.2.9q-1.2 3-2.4 4.1c-3.8 3.9-8.4 1.4-10.6-2.5q-3.3-6-1-12.3" vector-effect="non-scaling-stroke"/><path stroke="rgba(129,128,129,1)" d="M139 85.2c3.3 4 6.6-.7 5.6-4.2a1.4 1.4 9.8 0 0-.5-.7l-.7-.5m56.3 12.9v-3.4a1 1 82.8 0 0-.8-1h-1.5a2.3 2-88.7 0 0-2 2.2v.8a2.3 2-88.7 0 0 1.9 2.3h1.5a1 1-87.4 0 0 .9-.9" vector-effect="non-scaling-stroke"/><path stroke="rgba(35,35,34,1)" d="M200.2 91.4v-1a.1.1 82.8 0 0-.2-.1q-.4.1 0 1.1h.2" vector-effect="non-scaling-stroke"/><path stroke="rgba(129,128,129,1)" d="M149.3 93.2a3 2.7-86 0 0-2.9 2.8 3 2.7-86 0 0 2.5 3 3 2.7-86 0 0 2.9-2.7 3 2.7-86 0 0-2.5-3" vector-effect="non-scaling-stroke"/><path stroke="rgba(193,151,76,1)" d="M127.2 109.1q1.3-.2 1.3-1.4 0-1.6-2.2-1.2" vector-effect="non-scaling-stroke"/><path stroke="rgba(254,234,145,1)" d="M126.3 106.5q-.8-2.2-2.7-2.7-7.8-1.7-14.4 3.9h-.1q.3-1.4-.3-.2a.4.4 67.5 0 0 0 .1l-.2 3a1.2 1.2 15.6 0 0 .6 1q7.5 4.2 15.5 1.7a3.5 3.5 0 0 0 2.5-4.2" vector-effect="non-scaling-stroke"/><path stroke="rgba(194,161,102,1)" d="M126.3 106.5q-1.8.1-1.7 1.5.1 1.8 2.6 1.1" vector-effect="non-scaling-stroke"/><path stroke="rgba(211,167,79,1)" d="M125.3 116.3a2 1.3-6.3 0 0-2.1-1.1 2 1.3-6.3 0 0-1.9 1.5 2 1.3-6.3 0 0 2.2 1.1 2 1.3-6.3 0 0 1.8-1.5" vector-effect="non-scaling-stroke"/><path stroke="rgba(212,177,105,1)" d="M233.6 103.6a2 1.5-171.9 0 0 1.8 1.7 2 1.5-171.9 0 0 2.3-1.2 2 1.5-171.9 0 0-1.9-1.7 2 1.5-171.9 0 0-2.2 1.2" vector-effect="non-scaling-stroke"/><path stroke="rgba(254,235,120,1)" d="m191.1 127.6 11.5-2.6a.2.2 45.5 0 0 0-.4h-.3a.1.1-55.3 0 1 0-.3l.3-.2h-.1l-12.2 2.7v.3a.7.7 74 0 0 .8.5" vector-effect="non-scaling-stroke"/><path stroke="rgba(212,177,105,1)" d="M118 109.3a2.1 1.4-13.9 0 0-2.5-1 2.1 1.4-13.9 0 0-1.8 2 2.1 1.4-13.9 0 0 2.5.9 2.1 1.4-13.9 0 0 1.7-2" vector-effect="non-scaling-stroke"/><path stroke="rgba(59,26,28,1)" d="M159.3 176.1q.8-3.3.4-5.8-2.3-12.8-1.8-24.5" vector-effect="non-scaling-stroke"/><path stroke="rgba(37,15,11,1)" d="M158 145.8v-6a1 1-81.7 0 0-.7-.8 58 58 0 0 1-21.8-10.6.6.6 35.6 0 0-1 .2q-1 1.7-2.7 2.3a2 2 12.1 0 0-.8.5c-2.2 2.3-5.5 3-9 4a2.3 2.1 40 0 1-.9 0l-1.8-.3a.7.7-88.7 0 0-.8.8q2 16.6 8.7 34a.5.5-50.7 0 0 1 0q.7-3.8 3-7.4c2.9-4.3 8.8-7.5 13.5-4.1 4.3 3 3.5 7.5 2.6 12.6q-.2 1.6.8 4.8a2 1.8 13.4 0 0 .5.9q1.1 1 3.3 1.2 4.7.2 7.4-1.8" vector-effect="non-scaling-stroke"/><path stroke="rgba(94,40,37,1)" d="M158 145.8c-7.1-1.4-12.7 1.5-18 5.8a.8.8-47.3 0 0 0 1.3c3.7 2.5 8.4 6.7 9 11l1.5 7.8q.6 3.2 3.2 4 1.7.7 5.6.4" vector-effect="non-scaling-stroke"/><path stroke="rgba(129,128,129,1)" d="M186.4 143.8v14.1a.3.3 89 0 0 .3.3l18.6-.7a.5.5-80.5 0 0 .4-.5l-.7-14.2" vector-effect="non-scaling-stroke"/><path stroke="rgba(89,107,118,1)" d="m205 142.8-.2-3.7a.5.5 80.5 0 0-.6-.5q-8.5 2.5-17.2 3.1a.7.7 2.7 0 0-.7.6l.1 1.4" vector-effect="non-scaling-stroke"/><path stroke="rgba(216,234,245,1)" d="M205 142.8q-9.3 1.3-18.6 1" vector-effect="non-scaling-stroke"/><path stroke="rgba(129,128,129,1)" d="m159.8 143.9-.2 14.4a.5.5-89.4 0 0 .5.4h18.3a.6.6 89 0 0 .6-.6l-.6-15.6a.6.6 84 0 0-.6-.5h-.4" vector-effect="non-scaling-stroke"/><path stroke="rgba(89,107,118,1)" d="m177.4 142-17.4-2a.4.4-88.3 0 0-.4.4l.2 3.5" vector-effect="non-scaling-stroke"/><path stroke="rgba(216,234,245,1)" d="M177.4 142q.2 1.3-.8 1.8a.8.7 27.4 0 1-.3 0h-16.5" vector-effect="non-scaling-stroke"/><path stroke="rgba(129,128,129,1)" d="M56.6 199.6q2-.6 2.9-2.2 6.4-11.2 10.2-24.6 1.4-4.7 1-9.5-.3-3.5-3.8-6.3" vector-effect="non-scaling-stroke"/><path stroke="rgba(89,107,118,1)" d="M66.9 157q-8.7-.9-16.5 5.5-2.5 2.1-7.4 7.4-3 3.3-6.8 8.1-5.2 7 .8 12.9a.8.7 41 0 0 1 0l2.9-3.7a.8.8-61 0 0-.4-1.3l-2.6-1a.4.4-81.7 0 1-.2-.4.4.4-82 0 1 .4-.3q10.5 1.3 14.3 11.7a.3.3 18.5 0 1-.6.3l-2.6-4a.4.4 46.6 0 0-.6 0l-3.4 4.5a1 1-56.9 0 0 .3 1.4q5 2.8 11 1.5" vector-effect="non-scaling-stroke"/><path stroke="rgba(216,234,245,1)" d="M66.9 157q-6 1.6-11.2 4.5c-8 4.6-14 10.3-17 19.2a1 1 21.3 0 0 .5 1.3q4.8 2 9.6 5.9c3.5 2.8 5.6 7.7 7.8 11.7" vector-effect="non-scaling-stroke"/><path stroke="rgba(129,123,62,1)" d="M278.2 204.3v.4a1.3 1.2 30.6 0 0 .2.5l9.3 18.3a.4.4 71.2 0 1-.3.6l-24 4q-2.2.4-3.3 2.1a2 1.9 64.7 0 0-.3.9l-1.2 15.3" vector-effect="non-scaling-stroke"/><path stroke="rgba(98,98,27,1)" d="m258.6 246.4-.8 10.1a1.3 1.3-62.9 0 0 .3.9q1.8 2.2 4.4 3.1" vector-effect="non-scaling-stroke"/><path stroke="rgba(92,60,25,1)" d="M264.7 261.3q2.6.7 5.1 0" vector-effect="non-scaling-stroke"/><path stroke="rgba(129,123,62,1)" d="M269.8 261.3c4.4-.8 12.2-4.8 9.3-10.4a1.7 1.6 87.5 0 0-.8-.7c-4.1-1.9-6.4 1.1-10 4a1.3 1.3-30 0 1-2-.6c-1-2.3.8-5 2.2-7.3a12.2 12.2 0 0 0-2.2-15.7.2.2-9.2 0 1 .3-.4q2.8 1.5 4.5 4a1.2 1.2 78.8 0 0 .7.4q1.5.3 2-.4a.3.3-77.1 0 1 .2 0l20.9-4.8a1.7 1.7 71 0 0 1.1-2.4l-12.6-26.2" vector-effect="non-scaling-stroke"/><path stroke="rgba(92,60,25,1)" d="M283.4 200.8q-2.1-.3-5.5 2.3-.6.5.3 1.2" vector-effect="non-scaling-stroke"/><path stroke="rgba(219,182,85,1)" d="M283.4 200.8q-1.8 2.5-5.2 3.5m-8.4 57q-2.5-.5-5.1 0" vector-effect="non-scaling-stroke"/><path stroke="rgba(224,220,87,1)" d="M262.5 260.5q-3.4-4.8-3.4-7.3-.1-3.3-.5-6.8" vector-effect="non-scaling-stroke"/><path stroke="rgba(29,21,13,1)" d="M188.7 250.8q9.3 1.6 16.6-.6" vector-effect="non-scaling-stroke"/><path stroke="rgba(92,60,25,1)" d="M205.3 250.2q2-1.6 1.5 4.8a.7.7-89 0 1-.6.6l-20 .8a1.3 1.3 17.3 0 0-1 .5l-8.6 11.4a1 1-48.5 0 1-1.6 0l-2.4-2.4" vector-effect="non-scaling-stroke"/><path stroke="rgba(86,56,21,1)" d="m172.6 265.9-7.8-7.6a3.3 3.3 65.9 0 0-2.4-1l-20 1" vector-effect="non-scaling-stroke"/><path stroke="rgba(92,60,25,1)" d="M142.3 258.2q-2.3 0-1.3-5a.7.7 4 0 1 .7-.7l20.2-.8a1.1 1.1 9.8 0 0 1-.6l2-5a.7.7-80 0 0-.7-1L89.9 248a.7.7-1.4 0 0-.6.6v5.2" vector-effect="non-scaling-stroke"/><path stroke="rgba(86,56,21,1)" d="M89.3 253.8v23.9a.8.8-1 0 0 .8.8q22-1 50.9-1.8l49.5-1.5q10.9-.3 19.7-.8l19.7-.6q12-.3 24-1.4" vector-effect="non-scaling-stroke"/><path stroke="rgba(92,60,25,1)" d="m253.8 272.4 2.3-30.4a.3.3-89.1 0 0-.3-.4l-72.4 2.8a.4.4 77.4 0 0-.3.6q2.6 5.9 5.6 5.8" vector-effect="non-scaling-stroke"/><path stroke="rgba(176,115,44,1)" d="M253.8 272.4q-11.3-1.3-22.6-.6-8.3.6-12.4.4-16.5-.6-34-.6c-14.4 0-32.3-1.3-47.1 0-11.4.9-20.3.3-34 .4-3.2 0-9.8 0-11.6-2.3a1.6 1.4-34 0 1 .6-2.1q2-1.2 4.4-1.2 29 .1 57.5-1.1l7.9-.6q4.7-.3 10 1.2" vector-effect="non-scaling-stroke"/><path stroke="rgba(119,80,36,1)" d="M205.3 250.2q-8.2-.5-16.6.6" vector-effect="non-scaling-stroke"/><path stroke="rgba(176,115,44,1)" d="m142.3 258.2 19-.3a.5.5-.6 0 1 .5.5v.3a1.1 1.1-2.2 0 1-1 1.1q-15 1.2-29.5-1.2a.7.7-85.8 0 1-.6-.7v-4.2a.3.3 20.9 0 0 0-.2q-.2-.2-.4-.1" vector-effect="non-scaling-stroke"/><path stroke="rgba(92,60,25,1)" d="M130.3 253.4q0-.2-.2-.3l-.4-.2-28.3 1a.5.5 87 0 0-.5.6l.3 5" vector-effect="non-scaling-stroke"/><path stroke="rgba(176,115,44,1)" d="M101.2 259.5q-2.4-1-7.4-2.7-2.3-.8-4.5-3" vector-effect="non-scaling-stroke"/><path stroke="rgba(86,56,21,1)" d="m130.3 253.4.2 4.6a.6.6 48 0 1-.6.6l-28.7 1" vector-effect="non-scaling-stroke"/><path stroke="rgba(68,39,18,1)" d="M75.8 250.4q2.3 2.2 4.8 2.5a1 1 4.6 0 1 .8 1v4.1a.5.5-81.5 0 1-.6.5l-5.4-1.7a.5.5-74.8 0 0-.7.4q-1.4 6.2-5.2 11a.6.6 32.4 0 0 .2.9l17.5 8.4a.4.4-77 0 0 .6-.4v-28.8a.7.7-81.6 0 0-.4-.7L75.9 244a.5.5 9.1 0 0-.6.4v5.1a1.3 1.2-69.8 0 0 .5 1" vector-effect="non-scaling-stroke"/><path stroke="rgba(129,123,62,1)" d="M50.3 268.1Q46 263 46.7 257a1.6 1.6-70.5 0 0-.7-1.5l-3-2a1 1-69.6 0 0-1.3.7q-1 8.5 4.9 13.8 1.7 1.5 3.5.9a.4.4 60.4 0 0 .2-.7" vector-effect="non-scaling-stroke"/><path stroke="rgba(129,123,62,1)" d="M58.8 268.2q-3.8-2.9-4.2-8-.3-2.4-.2-2.6a.5.5-77.1 0 0-.4-.7l-4.7-.4a.8.8-86.4 0 0-.8.7c-.2 4.9 2.3 11.6 7.7 12.4q2 .3 2.7-.7a.5.5 38 0 0 0-.7m209 .4q3.9 0 8-3.1 2.7-2 2.5-5.3a.3.3 68.7 0 0-.6-.3q-4.4 3.6-9.9 3.6t-9.8-3.7a.3.3-67.8 0 0-.6.2q-.2 3.4 2.3 5.4 4.2 3.2 8 3.2" vector-effect="non-scaling-stroke"/><path stroke="rgba(128,113,60,1)" d="M257.2 268a1 1-66.2 0 0 .2.7q5.8 6.3 13.3 3 1.7-.7 2.5-1.8a.4.4 7.3 0 0-.5-.7q-8.8 3.3-15.2-3.7a.2.2-66.8 0 0-.3.1v2.4" vector-effect="non-scaling-stroke"/><path stroke="rgba(68,39,18,1)" d="M218.3 276.9q-16.9.5-25.1.5-1.4 0-3.5.6a1 1-87.7 0 0-.7.6l-6.2 19.8a1.3 1.3-59.6 0 0 .3 1.4c8.5 7.9 23.6 8 34 5q2.2-.6 3.6-1.7a2.3 2.3-21.7 0 0 .9-2l-3-24a.3.3 85.5 0 0-.3-.2m-100.2 3.2-22.2.9a3.3 3.3 13.9 0 0-2.7 1.6l-11 19.1a2.3 2.3-52 0 0 .3 2.7q4.2 4.4 10.7 7.2a.6.5 21.2 0 0 .7-.3l1.8-5.1v-.1q.2-1.3-2.2-1.5a.2.2 71.7 0 1-.2-.1l-.3-.5a.4.4 75 0 1 .3-.6q7.5.4 13.2 3.6 2.5 1.4 4.6 3.9a.6.6-5.8 0 1-.7.8l-4-2.3a.9.9-64.9 0 0-1.3.5l-1.3 3.7a1 1-74.5 0 0 .6 1.2q6.9 1.4 12.1 1a2 2-85.8 0 0 1.8-1.5q.6-2.8.7-6.8.3-16-.1-26.7a.8.8-75.6 0 0-.8-.7" vector-effect="non-scaling-stroke"/><path stroke="rgba(129,123,62,1)" d="m97.1 307.4-11.6 33.5a.6.6 7.5 0 0 .6.8q3-.2 5.4 1.9a.6.6-59.5 0 0 1-.3l10.7-33.3" vector-effect="non-scaling-stroke"/><path stroke="rgba(80,77,23,1)" d="M103.2 310q.6-1 .5-2a1 1 10 0 0-.6-.7q-5.8-3-6 0" vector-effect="non-scaling-stroke"/><path stroke="rgba(129,123,62,1)" d="m197.1 311.6-1.9 22.7a1.4 1.4-88.7 0 0 1.5 1.5l3.5-.1a1.6 1.6-88.8 0 0 1.5-1.5l1.6-19.9" vector-effect="non-scaling-stroke"/><path stroke="rgba(92,60,25,1)" d="m203.3 314.3.5-5a.6.6-87 0 0-.6-.8h-5a.8.8-77.3 0 0-.7.5q-.5 1.1-.4 2.6" vector-effect="non-scaling-stroke"/><path stroke="rgba(219,182,85,1)" d="M203.3 314.3q.1-1.4-.2-2.4a.7.7 79 0 0-.7-.5l-5.3.2" vector-effect="non-scaling-stroke"/><path stroke="rgba(70,74,77,1)" d="M194.7 342.2q-1 8.4-.5 17" vector-effect="non-scaling-stroke"/><path stroke="rgba(129,128,129,1)" d="M194.2 359.2v8a2.5 2.5-89.8 0 0 2.5 2.5h2.3a2 2 90 0 0 2-2V352a.4.4 83.5 0 0-.5-.4q-3 .7-6 .4" vector-effect="non-scaling-stroke"/><path stroke="rgba(70,74,77,1)" d="M194.6 352q-.6 0-.4-1.2a.5.5-85.9 0 1 .5-.5h.5" vector-effect="non-scaling-stroke"/><path stroke="rgba(129,128,129,1)" d="M195.2 350.3q3 1.4 5.3-.3a1 1-15.8 0 0 .4-.8l.4-5" vector-effect="non-scaling-stroke"/><path stroke="rgba(70,74,77,1)" d="M201.3 344.3q.2-.6 0-2.2" vector-effect="non-scaling-stroke"/><path stroke="rgba(129,128,129,1)" d="m201.4 342 .3-3.6a1 1-87.1 0 0-1-1h-4.6a1.3 1.3-88.8 0 0-1.2 1.1l-.2 3.7" vector-effect="non-scaling-stroke"/><path stroke="rgba(196,201,204,1)" d="M201.4 342q-3 1.7-6.7.2m6.6 2.1-6 .1a.4.4 88 0 0-.4.5l.3 5.4m-.6 1.7-.4 7.2" vector-effect="non-scaling-stroke"/><path stroke="rgba(70,74,77,1)" d="M83.3 347q0 1.2-.5 1.8" vector-effect="non-scaling-stroke"/><path stroke="rgba(59,26,28,1)" d="M81.2 352.8q-1.2 1.5-.5 2.2" vector-effect="non-scaling-stroke"/><path stroke="rgba(129,128,129,1)" d="M80.7 355 76 367.8a.8.8 19 0 0 .5 1q2.9 1 5.4 3.1a.8.8-60.9 0 0 1.3-.3l4.2-13.4a1 1-49.9 0 0 0-.8l-.5-.8" vector-effect="non-scaling-stroke"/><path stroke="rgba(59,26,28,1)" d="M87 356.6q.3-.6 1.4-.6a.2.2 16.9 0 0 .1 0q.2-.3 0-.5" vector-effect="non-scaling-stroke"/><path stroke="rgba(70,74,77,1)" d="M89.5 352q1.3-2.4 1.6-5.4" vector-effect="non-scaling-stroke"/><path stroke="rgba(129,128,129,1)" d="M91.1 346.6q-1.5-4-6-3.2a1 1-83.8 0 0-.6.5l-1.2 3" vector-effect="non-scaling-stroke"/><path stroke="rgba(196,201,204,1)" d="M91.1 346.6q-.8.8-.9 2a.3.3-70.3 0 1-.5.2q-2.9-1.8-6.4-1.9m6.2 5.1q-1.3-3.6-6.7-3.3" vector-effect="non-scaling-stroke"/><path stroke="rgba(185,153,155,1)" d="M88.5 355.5H88a1.1 1-21.7 0 1-.6-.3q-2.7-2.2-6.3-2.4" vector-effect="non-scaling-stroke"/><path stroke="rgba(185,153,155,1)" d="M87 356.6q-2.9-3-6.3-1.6" vector-effect="non-scaling-stroke"/><path stroke="rgba(129,128,129,1)" d="M56.4 356.1q1.5-3.2 0-6a1.4 1.3 83.3 0 0-.8-.7q-1.5-.4-2.9 0a1.2 1.2 6 0 0-.7.6c-1 1.8 1.1 5.4 2.8 6.6a1 1 29 0 0 1.6-.5" vector-effect="non-scaling-stroke"/><path stroke="rgba(70,74,77,1)" d="m62.8 378.5-3.7-2.6c-3.5-2.4-6-9-8.2-14.3-1.7-4-5.4-9.5-10.3-6.3-3.3 2.2-2.8 7.8-1.5 10.8q3.7 9 12.1 12.6h.1l7.4 2a1 1-47.8 0 0 .6 0l3.4-1.3a.5.5-38 0 0 .1-.9" vector-effect="non-scaling-stroke"/><path stroke="rgba(129,128,129,1)" d="M227.6 366.2a4.6 4-73.4 0 0-5.3 3.3 4.6 4-73.4 0 0 2.6 5.6 4.6 4-73.4 0 0 5.2-3.3 4.6 4-73.4 0 0-2.5-5.6" vector-effect="non-scaling-stroke"/><path stroke="rgba(29,21,13,1)" d="M192.6 382q4.4.4 7.7-2.4.4-.3.4-.7-.2-.6-.8-.5c-2.4.6-4.5 1.2-7 1-2.6-.4-4.5-1.5-6.7-2.5q-.6-.3-.8.2-.2.4.1.9 2.7 3.4 7 4" vector-effect="non-scaling-stroke"/><path stroke="rgba(70,74,77,1)" d="m59.3 383-.8 2.5a.5.5 82.3 0 0 .8.6l4.8-3.2a1.2 1.1 74 0 0 .5-1v-1.2a.5.5-13.2 0 0-.7-.4l-4 2a1.2 1.1 86 0 0-.6.7m140.9.1 1.2 5.5a.7.7-28.6 0 0 1.2.4l3-3a.6.6-52.5 0 0-.2-.8l-4.5-2.6a.5.5-81.3 0 0-.7.5m-125.5 8.4q-3.9-4.6-9.1-7a1.1 1.1-46.5 0 0-1 .1l-5 2.6a.5.5 42.7 0 0 0 1l10.7 4.3a.7.7 59.3 0 0 .2.1l3.6.2a.8.8-18.6 0 0 .6-1.3" vector-effect="non-scaling-stroke"/><path stroke="rgba(129,123,62,1)" d="M64 251.2q-.4-1-2-3.7-3.2-6.2.5-11.8a.3.3-85.7 0 0-.4-.3q-1.2.5-2.2 2.3c-2.6 5 0 10 3.7 13.8a.3.3 10.8 0 0 .4-.3" vector-effect="non-scaling-stroke"/><path stroke="rgba(216,124,128,1)" d="m178.3 208.7-4.4-3.4a1 .8 70.1 0 0-.2-.1 35.4 35.4 0 0 0-20.4-1.8 1.3 1.3 67.7 0 0-1 2q4.5 5.9 11.4 11.8 10.5 9.3 24.5 5.3.9-.3 4.8-3.2a2 1.9 84.6 0 0 .7-.8q1.3-3 1.2-5.6-.8-10.8-11.2-14.3-1.6-.6-8.7-.4a1.7 1.6-55.2 0 0-.6 0l-1.2.6a1.4 1.4 51.9 0 0-.3 2.3q4 2.8 6 7.1a.4.4 6.4 0 1-.6.5" vector-effect="non-scaling-stroke"/><path stroke="rgba(92,60,25,1)" d="M215.5 250.5v4.3a.5.5-1.8 0 0 .5.4l23.8-.9a.6.6-90 0 0 .5-.5l.2-4.8" vector-effect="non-scaling-stroke"/><path stroke="rgba(119,80,36,1)" d="M240.5 249q-12.6-.6-24.5.5a.6.6-4.8 0 0-.5.6v.4" vector-effect="non-scaling-stroke"/><path stroke="rgba(29,21,13,1)" d="M240.5 249q-12 3.1-25 1.5" vector-effect="non-scaling-stroke"/></g><path fill="#020102" d="M213.1 34.1q.8 2.2 2.4 4.2l1.2 2.6a.2.2 12.6 0 1-.4.2c-5-6-9.7-11.1-16.2-15.5q-8.6-5.7-16.3 1.5-6.1 5.5-10.6 13.1l-2.3 3.6a.2.1 66 0 1-.3-.1q.5-4 2.8-8l3.4-6.4c2.2-2.3 4.5-5.1 7-6.7q3.3-2.3 7.7-3 1.6-.3 5.3.8 1.4.4 5.2 2.7c.7.4 1.1 1.2 2 1.3a.8.8-19 0 1 .6.2l3.7 3.7 4.8 5.8Zm-52.1.7 4.3 7.2a.3.2-31.4 0 1-.1.3.3.2 53 0 1-.3 0l-2.1-2.6c-8.6-10-22.6-22.4-35.4-9.8q-6.6 6.4-10.9 16.3a.2.2 60.1 0 1-.4-.1q.4-3.9 2.3-8l1.7-3.7q2-3.2 4.1-5.9 7.3-9.4 19-6.7c7.6 1.7 12.6 7.8 17.8 13Z"/><path fill="#fff579" d="M215.5 38.3c6.5-2.9 13.4-7.2 20.7-4.5 3.9 1.4 6.2 3.4 10.7 2.9 2.7-.4 5-2 7.6-3.2 4.2-2 6.2 1.2 5.8 5-.5 4.3-2.7 9.8-1.3 14q.8 2.7 3.5 8.8 1.5 3.3 1.5 8.4 0 1.5-1.5 5.4-2.3 6-.3 11.8c1.2 3.4 3.5 8 3.3 12.5-.1 3.8-3.4 9.2-3.7 12.4-.5 6.3 2.8 14.8 3.4 18.5 1.3 6.8-.3 11.6-2.8 19.1-1.9 5.8-.2 11.1 1 17.6q1.3 6 1.2 11.2a7.6 7.5 59 0 1-.8 3.2l-3.6 7.4a1.6 1.3 72 0 0 0 .3q-1 4.3-.4 9.4l1.6 10.6c.9 5.3 1.3 12.2-4.3 14.6a2.7 2.7-57.7 0 1-1 .2q-4.7.2-6.2-.6c-6.6-2.9-11.1-5.3-16.5-3.3l-8.2 3q-6.7 2.5-14.2-1.4l1.6-6.3a.1.1 74.1 0 0-.2-.1l-6 6.3-8.6 5a6 5.5-66.4 0 1-1 .5l-8.7 2.8q-4.2 1.4-10.9 1.7c-12.2.5-21-5.8-30.2-13.9-3.2-2.8-5.4-6-7.9-9.2a.5.5 15.6 0 0-.9.5l2 5 5.6 8.3a.3.3 69.4 0 1-.2.5q-2.8.3-5 1.4-4.6 1.8-9.3 2a3.2 3.2-38 0 1-1 0l-12.2-3.7c-8.5-2.5-13.3 2.3-19.3 4-4.2 1.2-7.3 1.8-9.5-2.4q-1-2-.5-5c1-5.3 3.7-10.4.9-15.6q-2.9-5.3-2.8-10c0-3.8 1.7-7 2.6-10.9 1.4-6.2-.3-11-2.6-16.6q-2-5-1.8-10.2c.2-4.6 1.8-8.8 3.1-13 2-6.6 1.6-12.8-1.6-18.8-2.3-4.3-4.9-8.7-4.6-13.4q.3-4.8 1.6-10.9.8-3.3-.2-8.1a3.6 3.4 27 0 0-.4-1c-2-3.9-4.2-7-5.2-10C76 75 77 68 78.3 62.4a3.8 3.6 52 0 0 .1-1q-.1-3-.7-4-2.6-5.4-5.5-8.7c-2.6-3.1-4.4-6.3-2-9.8a2.9 2.9 18 0 1 2.4-1.2c6 .2 12.6 2.7 17.4 2.9 4.2 0 6.8-1.8 10-4q1.7-1 3.7-1.3 2.5-.3 3.8 0l10.9 2.8q-1.9 4.1-2.3 8a.2.2 60.1 0 0 .4 0q4.3-9.8 10.9-16.2 2.3 0 7.2-1.3c5.4-1.5 16 1.1 19 6.7l-2 9.7a.6.6-38.5 0 1-.7.4q-3-.6-6 0a.7.7-11.7 0 1-.8-.6l-2.4-10.5a.6.6-11 0 0-.7-.5l-1.7.4a.8.8-12 0 0-.6 1l2 10.3a.4.4-23.8 0 1-.2.4l-6.1 4a.7.7 24.6 0 1-1-.1l-5.8-9a.4.4 63.3 0 0-.5 0l-2 1.3a.5.5-79.4 0 0-.2.7l6.2 9.3a.7.7-41.7 0 1 0 .8q-8.2 9.7-9.3 23.6-.8 9.1.8 17.4-1.1 1.6-4.5 2.1-4.3.7-5 1-8.3 2.6-12.3 11-2.8 5.4-.5 12.6 1.6 4.7 4.2 8.8 2.2 2.3 5 3.4 4 1.8 6.9 1.7 3.3 24.7 11.6 42.3 9 19 19 32.6 4.8 6.7 8.3 9.9 14.7 13.3 34.2 7.3c11.4-3.6 19.3-14.7 23.8-25 10.6-24 17.3-49.4 20.7-75.3 5.2-.3 9.7.2 14.5-3q3-1.8 4.2-5a.5.5 16.4 0 0-.3-.7c-3.3-.8-5.8-.5-11.9-.2q-4.3.2-9.6-2.2 1.6-2.6 2.2-6 6.3-.1 11.8-2.7 1.2.2 1.8-.2 1-.7.3-1.8-.6-.8-2-1-6.6-5.5-14.3-1.8l-1.9-1.8q0-1.3 1.2-1.9c9.2-4.1 18-.2 23.4 8a.3.3 59 0 0 .4 0 .3.3-27.5 0 0 .1-.3q-2.8-6.3-8.4-9-10-4.9-21 1.9 3.8-21.2-5.8-38-4.4-8-12.3-13 1.3-9 1.7-10.6a.3.3 8.6 0 0-.3-.4h-2.7a.4.4 4.6 0 0-.4.3l-1.3 8.6a.4.4-21 0 1-.4.3l-7-1.1a.8.8 1.5 0 1-.6-.7L194 33a.5.5-6.4 0 0-.6-.5l-2 .3a.6.6-7.4 0 0-.6.7l1.4 11a.5.5 72.7 0 1-.3.5l-6 3.1a.6.6-30 0 1-.8-.2l-5.8-8.8a.7.7 50.5 0 0-1-.2l-1.2.8a1 1 58.1 0 0-.3 1.3l5.5 9.2a.8.8 47.7 0 1 0 1c-.7.9-1.8 1.7-2.6 2.9q-3.8 5.4-5.5 11.7a.2.2 40 0 1-.4 0 36 36 0 0 0-18.7-19.3.7.7 16.3 0 1-.4-.8l1.9-9.4q2.2 3.1 6.2 3.4l2 2.5a.3.2 53 0 0 .4 0 .3.2-31.4 0 0 0-.3l-4.2-7.1q.8 0 1.2.3 1.5 2.4 5.3 1.5 3.3-.8 6-.8-2.4 4-2.9 7.9a.2.1 66 0 0 .3 0l2.3-3.5q4.5-7.6 10.6-13.1 7.7-7.2 16.3-1.5a75.7 75.7 0 0 1 16.2 15.5.2.2 12.6 0 0 .4-.3l-1.2-2.5Z"/><path fill="#fff4ab" d="M162.8 39.7q-4-.3-6.2-3.4-.9-1-3-1c-3-5.6-13.6-8.1-19-6.7q-4.9 1.4-7.2 1.3c12.8-12.6 26.8-.2 35.4 9.8Z"/><path fill="#81903b" d="M265.7 157.6q1.5 2.3.7 1.2l-.1 9a2.9 2.8-52.2 0 0 0 .7l1.7 7q1.5 5.7-.3 11a3 2.9-19.6 0 1-.4.8q-4.5 6.7-4.1 14.9 0 .9.5 1.5-.2.4-.2 1.4l.1 1.3.8 11a.9.9-15.5 0 1-.5.9l-.7.3a1 1-10 0 0-.6.8c-.3 2.9-1.9 4.2-1.7 7.8q-.6.3-2.2.6-1.1.2-1.4 1.2-7-.6-11.3-1.5-1.8-.4-4.2-2a3.8 3.7 70.1 0 0-.9-.4q-6-2-12.5-.3l-9 2.9a4.2 4 35.6 0 1-1.4.2l-7.4-.2q-1-.2-1.9 0l-4-1a.2.2 33.8 0 1-.2-.4l6.5-4.7q7.5 3.9 14.3 1.4l8.1-3c5.4-2 10 .4 16.5 3.3q1.5.8 6.3.6a2.7 2.7-57.7 0 0 1-.3c5.4-2.3 5-9.2 4.2-14.5l-1.6-10.6q-.7-5 .3-9.4a1.6 1.3 72 0 1 .1-.3l3.6-7.4a7.6 7.5 59 0 0 .8-3.2q.1-5.2-1.1-11.2c-1.3-6.5-3-11.8-1-17.6 2.4-7.5 4-12.3 2.7-19.1-.6-3.7-4-12.2-3.4-18.5.3-3.2 3.6-8.6 3.7-12.4.2-4.5-2.1-9-3.3-12.5q-2-5.8.3-11.8 1.5-4 1.5-5.4 0-5.2-1.5-8.4-2.7-6.1-3.5-8.7c-1.4-4.3.8-9.9 1.3-14 .4-3.9-1.6-7-5.8-5.1-2.5 1.2-5 2.8-7.6 3.2-4.5.5-6.8-1.5-10.7-2.9-7.3-2.7-14.2 1.6-20.7 4.5q-1.6-2-2.4-4.2 2.7-.4 4.7-1.8a3.5 3.5 16.7 0 1 .8-.4l5.3-2q.6-.2 4.1 0a2.5 2.4-30 0 1 1 .2q6.9 3.3 15 3a.8.7-47.4 0 0 .1 0l3.2-.7a2.2 2-61.9 0 0 .4-.1L254 29a.9.9-47.4 0 1 .7 0l5.8 2.3a1.8 1.8-6.6 0 1 .7.6q2.5 3.5 2 7.5c-.9 6.7-4 12.2-.9 19.7l3 7.4q.3.5 1.2 4.3a2.7 2.7 44.4 0 1 0 1q-1 5.2-2.6 8.6a3.1 3.1 62.3 0 0-.3 1q-.6 5 .3 8 .4 1.6 2.8 7.3 1.8 4.3.7 8.9a3.3 3.2-25.7 0 1-.2.6q-4.3 8.5-3 17.7a4.3 4.2 31.9 0 0 .2.9q.7 2 1 3.8a4.2 4.1-62.2 0 0 .4 1.2q3.5 7.4 1.6 15.5a3 3 65.1 0 1-.3.6q-1.7 3.5-2.5 7.9-.6 2.7 1 3.8Z"/><path fill="#9e982c" d="m176.8 29.3-3.4 6.5q-2.6 0-5.9.8-3.8.9-5.3-1.5 3 .3 5.7-.6a2.5 2.4-75 0 0 1-.5q1-1 2.4-1.5a2.5 2.5 15 0 0 .9-.5q2-1.7 4.6-2.7Z"/><path fill="#020102" d="M224.6 98.6q2-.3 4.2 1.3l2 1.8q2.3 3.6 2.3 7.5-.6 3.4-2.2 6l-4.4 4.5q-.6.1-1.9 1.3a69.8 69.8 0 0 1-35.9 10.2h-.7l-9.6-1.6q0-.6 1.1-.5 6.4.7 11.9.4 17.4-1 31.4-9.8a16 16 0 0 0 7.1-8.2q.8-2.2.3-4.2-1-4-3.8-5.8a8.2 8.2 0 0 0-8.6.8c-10.7 8.9-21.8 19-36.7 19 2-.3 4.7-1.3 8-2.1a.3.3-34 0 0 0-.6q-7.9-5.8-11.8-15.1a.3.3-47 0 0-.6 0 37.2 37.2 0 0 1-9.9 16.5c-7.8 7-18.4 7.7-27.3 1.6q-1.8-1.7-.5-2.3c10.4 7.8 23 5.7 30.3-4.8a50.4 50.4 0 0 0 1.2-51.7Q164 50.6 151.6 47q-8.8-1.2-14.7 3.2c-13.6 10.1-16 30.1-12 45.7q-1.7.2-2.3-2-1.6-8.3-.8-17.4 1.1-13.9 9.2-23.6a.7.7-41.7 0 0 0-.8l-6.1-9.3a.5.5 84 0 1 .1-.7l2-1.3a.4.4 75.3 0 1 .6 0l5.8 9a.7.7 50.2 0 0 1 .2l6.1-4a.4.4-23.8 0 0 .2-.5l-2-10.3a.8.8-12 0 1 .6-1l1.7-.4a.6.6 22.6 0 1 .7.5l2.4 10.5a.7.7-11.7 0 0 .8.5q3-.5 6 .1a.6.6-64.7 0 0 .7-.4l2-9.7q2.1 0 3 1l-1.9 9.4a.7.7 16.3 0 0 .5.8 37 37 0 0 1 18.6 19.3.2.2 40 0 0 .4 0q1.7-6.3 5.5-11.7c.8-1.2 1.9-2 2.6-3a.8.8 47.7 0 0 0-.9l-5.5-9.2a1 1 58.1 0 1 .3-1.3l1.3-.8a.7.7 76.8 0 1 .9.2l5.8 8.8a.6.6-30 0 0 .8.2l6-3a.5.5 72.7 0 0 .3-.6l-1.4-11a.6.6-7.4 0 1 .5-.7l2.1-.3a.5.5-6.4 0 1 .6.5l1.4 11a.8.8 1.5 0 0 .6.7l7 1a.4.4 17.7 0 0 .4-.3l1.3-8.5a.4.4 4.6 0 1 .4-.3h2.7a.3.3 8.6 0 1 .3.4q-.4 1.5-1.7 10.5 7.9 5.2 12.3 13 9.6 17 5.9 38.1Z"/><path fill="#81903b" d="m120 34.4-1.6 3.7-10.9-2.7q-1.3-.4-3.8 0-2 .2-3.6 1.3c-3.3 2.1-6 4-10.1 3.9-4.8-.2-11.5-2.7-17.4-3a2.9 2.9 18 0 0-2.5 1.4c-2.3 3.4-.5 6.6 2.1 9.7q2.9 3.3 5.5 8.6.6 1.1.7 4.1a3.8 3.6 52 0 1 0 1 35.7 35.7 0 0 0-.6 18c1 3 3.1 6.2 5.3 10.2a3.6 3.4 27 0 1 .3.9q1 4.8.2 8.1-1.3 6-1.6 10.9c-.3 4.7 2.3 9.1 4.6 13.4 3.2 6 3.6 12.2 1.6 18.8-1.3 4.2-2.9 8.4-3 13q-.3 5.2 1.7 10.2c2.3 5.6 4 10.4 2.6 16.6-1 3.8-2.6 7-2.6 10.9q0 4.7 2.8 10c2.8 5.2 0 10.3-.9 15.6q-.5 3 .5 5c2.2 4.2 5.3 3.6 9.5 2.4 6-1.8 10.8-6.5 19.3-4l12.2 3.6a3.2 3.2-38 0 0 1 .1q4.7-.2 9.2-2 8 .4 14 6.5l-.7.5-10.8-3q-2.3-.7-4 1.1-2.6-1.3-3.4 0-.9-.2-3.2.3-4.6.8-9.1-.4l-8.6-2.1c-2.3-.8-7.2-1-8.7-.4q-8 3.6-16.6 4.8-1-1.1-1.6 0-2.3-.3-3.7-1.4l-4.2-4.2a1.3 1.2 73.6 0 0-.6-.3 7.2 7.2 0 0 0-4.7.1c-2.8 1-5 .9-7.2-1-1.7-1.6-3.2-3.5-5.2-4.3q-2.6-.9-5.1.5-1.2-.9-2.2-.2a.7.7-17.5 0 0-.4.6l.2 3a.7.7-4.3 0 1-.7.7q-.9 0-1.5-.3 2.5.5 1.8-4.4a.6.6 30.9 0 0 0-.3l-2.1-4.2a1.5 1.5 43.6 0 1 0-1.3l2.5-6q.6-4.5-3.2-6.7c3.8.3 8.1-.2 10-3.7Q69 184.2 72 169.7c.8-4 .7-10-3-12.7q-3.1-2.4-6-2-4.8.5-11 4.8.7-5.3-2.4-10-2-2.9-2.7-4.3c-1.5-3.2-.5-8.3-.1-13.3q0-1.3-2-5.7a2.5 2.4-83.7 0 0-.7-.9q-2.9-2.4-4.4-5.4-1-1.9-1-4.5L39 103q.1-1.6-1.8-5.6a4.5 4.4-79.9 0 0-.8-1.3C32 91.7 30 88 30.6 81.7a2.6 2.5 63.8 0 1 .3-1c2.2-3.7 4.9-5.2 9.4-7.9q.6-.3 3-3a.6.6 77.6 0 0 .1-.3l2.4-7.6a.6.5-21.8 0 1 .1-.2q2-2.4 2.9-2.7 4-1.6 5.5-2.4 2.6-1.4 3.8-5c1-2.9 1.5-8 3.4-12.4a1 1-5.5 0 1 .4-.5l3.4-2.1a.7.5 9.2 0 1 .1 0q3.9-1.7 7.7-.7c8.1 2 12.3 3.6 19.2.5a4 3.5 11.2 0 0 .8-.5q6.8-5.2 15-1.6a4.5 4.3-27.1 0 0 1.1.3q5.6.8 10.9-.2Z"/><path fill="#c1c234" d="M242.5 44.2a10.7 8.4-103.3 0 1 10.6 8.5 10.7 8.4-103.3 0 1-5.7 12.4 10.7 8.4-103.3 0 1-10.6-8.5 10.7 8.4-103.3 0 1 5.7-12.4Z"/><path fill="#e0e4e6" d="M204 48.3c-10.2-.4-19.4 8-22.7 17-1.8 5-2.1 12.6-3 18.7q-.6-7.3-2.8-13.5a5 5-47.3 0 1-.1-3c2.3-8.6 7.4-17.3 16.2-20.2q6.3-2 12.4 1ZM151.6 47q-6.8 3.4-12 7.3-.9.7-5.2 5.5a.3.1-49.8 0 1 0-.3q4.8-6.1 11.8-10.2V49h-.3c-18 9-21.9 30.8-16.8 48.4l-4.3-1.6c-3.8-15.6-1.5-35.6 12.1-45.7q6-4.4 14.7-3.2Z"/><path fill="#fff" d="M151.6 47q12.4 3.6 18.9 15.8a50.4 50.4 0 0 1-1.2 51.7l-7.3 2.3q-6.6 2.2-13.4.8-6.9-1.4-9.3-8-3-8.3-10.2-12C124 79.8 128 58 145.9 49.1h.3q-7 4.2-11.8 10.3a.3.1-49.8 0 0 0 .3q4.3-4.8 5.2-5.5 5.2-4 12-7.3Z"/><path fill="#fff" d="M204 48.3c14.3 7 20.3 25.2 20 40.2q-.3 7.3-.7 8.6a.8.8-85.2 0 1-.7.6q-4.7.7-7.7 3.7a65.1 65.1 0 0 1-22.4 16.4 2.3 2.3-36 0 1-2.2-.4q-8.6-6.7-12.6-17a2.3 2.3 39.4 0 1-.1-1.3q1.2-7.4.7-15c.9-6.2 1.2-13.7 3-18.7 3.3-9.1 12.5-17.5 22.7-17.1Z"/><path fill="#9e982c" d="M103.5 70.5c-.7-5.7-.3-11.5-5.7-15.1a1.7 1.7-45.5 0 0-1.9 0l-3.5 2.4q-1.6 1-2.5-.8 3-9.5 12.8-6.2a2.7 2.5-14.4 0 1 .8.4q2 1.8 2.4 2.6 1.5 3.6 1 8.2-.5 5.5-3.4 8.5Z"/><path fill="#c1c234" d="M103.5 70.5q-7.3 3-11.8-3.7-3-4.4-1.8-9.8 1 1.8 2.5.8l3.5-2.4a1.7 1.7-45.5 0 1 2 0c5.3 3.6 5 9.4 5.6 15.1Z"/><path fill="#63733c" d="M56.8 99q-3-4.8-4.2-8.8c-1.3-4.4-.6-11.4 3.6-14.2 4.5-3 8.3-.3 11.7 2.6a.3.3-71 0 0 .4-.2c-.7-11.7-11.7-14.7-18.8-5.8 2.1-3.8 4.8-6.7 9.2-6.9 5.3-.2 8.7 3.8 10 8.9A22.3 22.3 0 0 1 56.8 99Z"/><path fill="#435223" d="M56.8 99q-7.3.8-9.6-6.4-3.3-10.2 2.3-20c7.1-8.9 18-5.9 18.8 5.8a.3.3-71 0 1-.4.2c-3.4-3-7.2-5.5-11.7-2.6-4.2 2.8-4.9 9.8-3.6 14.2q1.2 4 4.2 8.9Z"/><path fill="#020102" d="M194.6 68.4A18.3 13-94.6 0 1 209 85.6a18.3 13-94.6 0 1-11.5 19.2 18.3 13-94.6 0 1-14.4-17.2 18.3 13-94.6 0 1 11.5-19.2Z"/><path fill="#4393c9" d="m207.5 83.7-6.5-2q-1.4-4.3-5.3-5.6-2-.7-2.6.5-4.3-.6-4.4 3.4-2 1.4-4.2 2.3a17 11.8 85.2 0 1 6-11.3 17 11.7 85.3 0 1 9.4-.1 17 11.7 85.3 0 1 7.6 12.8Z"/><path fill="#020102" d="M143.7 71.2a19.2 13.3-97.1 0 1 15.6 17.4 19.2 13.3-97.1 0 1-10.8 20.7 19.2 13.3-97.1 0 1-15.6-17.4A19.2 13.3-97.1 0 1 143.7 71Z"/><path fill="#4393c9" d="m157.5 85.8-6.7-3q-2.7-4-7.2-3.6-.4 0-.2.6-1.8-1-4 .5l-5.2 4.5a18 12 82.7 0 1 5.6-10.8 18 12 82.6 0 1 10.1-.1 18 12 82.7 0 1 7.6 11.9Z"/><path fill="#020102" d="M201 81.8q2.3 5.8.2 11.1c-1.1 3-3.7 5.3-7 4.2-5-1.7-6.3-9.5-5.6-14.3a.4.4 19.4 0 1 .6-.3l.3.2q1 1.4 2.6 1a1.9 1.8-71.9 0 0 .8-.5q3.9-3.5.2-6.7.5-1 2.6-.4 4 1.3 5.3 5.7Z"/><path fill="#fff" d="M193.1 76.5q3.7 3.2-.3 6.8a1.9 1.8-71.9 0 1-.8.4q-1.6.4-2.5-1l-.8-2.8q0-3.9 4.4-3.4Z"/><path fill="#c1c234" d="M96 77a7 6-100.8 0 1 7 5.9 7 6-100.8 0 1-4.4 8 7 6-100.8 0 1-7.1-5.8 7 6-100.8 0 1 4.5-8Z"/><path fill="#020102" d="M150.8 82.8c2.7 4.1 2.6 6.7 2.4 12.2a2.9 2.9-33.5 0 1-.2.9q-1.2 3-2.4 4.1c-3.8 3.9-8.4 1.4-10.6-2.5q-3.3-6-1-12.3c3.3 4 6.6-.7 5.6-4.2a1.4 1.4 9.8 0 0-.5-.7l-.7-.5q-.2-.6.2-.6 4.5-.3 7.2 3.6Z"/><path fill="#fff" d="m143.4 79.8.7.5a1.4 1.4 9.8 0 1 .5.8c1 3.4-2.3 8.2-5.7 4.1l.5-5q2.2-1.4 4-.4Z"/><path fill="#87d3ef" d="m188.7 80 .8 2.7-.3-.2a.4.4 19.4 0 0-.6.3c-.7 4.8.6 12.6 5.7 14.3 3.2 1 5.8-1.3 6.9-4.2q2-5.3-.2-11.1l6.5 2a17 11.7 85.2 0 1-3 15.4 17 11.8 84.4 0 1-3.2 3.1 17.1 11.8 85.3 0 1-9.3 0 17.1 11.7 85.3 0 1-7.5-20q2.3-.9 4.2-2.3Zm-49.3.3-.5 5q-2.2 6.2 1.1 12.2c2.2 4 6.8 6.4 10.6 2.5q1.2-1.1 2.4-4.1a2.9 2.9-33.5 0 0 .2-1c.2-5.4.3-8-2.4-12.1l6.7 3a18 12 82.8 0 1 .7 7.7 18 12 82.7 0 1-5.6 12.8 18 12 82.6 0 1-9.6.7 18 12 82.6 0 1-5.4-5.3 18 12 82.7 0 1-3.4-17l5.2-4.4Z"/><path fill="#fff" d="M199.7 92.7a1 1-55.3 0 1-1 1l-1.4-.1a2.3 2-88.7 0 1-2-2.3v-.8a2.3 2-88.7 0 1 2.1-2.2h1.5a1 1-63 0 1 .9 1l-.1 3.4Z"/><path fill="#444541" d="M200 91.4q-.4-1 0-1.1a.1.1 82.8 0 1 .2.2v.9h-.2Z"/><path fill="#fff" d="M149.3 93.2a3 2.7-86 0 1 2.5 3.1 3 2.7-86 0 1-3 2.8 3 2.7-86 0 1-2.4-3.1 3 2.7-86 0 1 2.9-2.8Z"/><path fill="#c45b2c" d="m124.8 95.9 4.3 1.6q7.3 3.8 10.2 12l-.3 9.8q-1.3.6.5 2.3-2 .7-3.6 3.5a.8.8-46 0 0 0 .8l.2.3q0 .3-.3.4h-.5q-.8-.1-1 .2-6.5 7.4-17.9 7.7-2.9 0-7-1.7-2.7-1.1-4.9-3.4l-.2-.7q-.1-.8 1-.3 12.6 6.4 24-.3a3.6 3.5 6.5 0 0 .8-.6q4.9-5 6-7.1 2.6-5.4.7-11.4-3-8.8-12.3-10.8-4-1-8.5.5-3.4.6-5.7 2-4 2.4-9.5 7.2 4-8.3 12.2-11l5-.9q3.5-.5 4.6-2.1.6 2.2 2.2 2Zm104 4q-2.2-1.6-4.2-1.3 11-6.8 21-1.9 5.5 2.7 8.3 9a.3.3-27.5 0 1 0 .3h-.1a.3.3 59 0 1-.4 0c-5.4-8.2-14.2-12.1-23.4-8q-1.3.6-1.2 1.9Z"/><path fill="#edb75d" d="m104.3 128.7-1.7-5.7a.6.6 86.8 0 1 .6-.7c11.1 2 20.7 3.1 29.3-5.8a2 1.9 65.1 0 0 .5-1.4q-1-15.8-17-16.4 4.5-1.4 8.5-.5 9.4 2 12.3 10.8 2 6-.7 11.4-1.1 2.2-6 7a3.6 3.5 6.5 0 1-.8.7q-11.4 6.7-24 .3-1.1-.5-1 .3Z"/><path fill="#fde076" d="M116 98.7q16 .6 17 16.4a2 1.9 65.1 0 1-.5 1.5c-8.6 8.8-18.2 7.7-29.3 5.7a.6.6 86.8 0 0-.6.7l1.7 5.7.2.7q-2.6-4-4.2-8.8-2.3-7.2.5-12.7 5.6-4.8 9.5-7.2 2.3-1.4 5.7-2Z"/><path fill="#fff4ab" d="M245 103.5q-1.7 0-1.8 1 0 1.3 1.7 2-5.5 2.6-11.8 2.7 0-3.9-2.4-7.5 7.7-3.8 14.4 1.8Z"/><path fill="#fff579" d="M230.2 107.3q-7.3 11-20.1 15.9-6.4 2.5-14.7 4-2.2.4-4 2.3-5.5.3-11.9-.4-1-.1-1 .5l-1.7-1.2a.3.3 85.4 0 0-.3.4l2.9 3a3.5 3.5 75.8 0 0 1.5.8q2.3.7 5 .5-4.5.6-8.1-1.3h-.1a.1.1 41.8 0 0 0 .2c5.3 3.5 10 2.6 15.9 1.6a.2.2-50.6 0 0 0-.5l-6 .3a.2.2 22.7 0 1-.2-.4q.8-.8 1.3-1.8c13-.4 24.8-3.3 36-10.2q2 1.5 3.2 3.6c-19 15-44.7 17.9-68 13q-13.6-3-23.7-10.8-.3-.2-1-.2h.6q.4-.1.3-.4l-.2-.3a.8.8-46 0 1 0-.9q1.6-2.7 3.6-3.4a21.3 21.3 0 0 0 27.3-1.6 37.2 37.2 0 0 0 9.9-16.5.3.3-47 0 1 .6 0q4 9.3 11.8 15.1a.3.3-34 0 1 0 .6c-3.3.8-6 1.8-8 2.2 14.9 0 26-10.2 36.7-19a8.2 8.2 0 0 1 8.6-.9q2.8 1.8 3.8 5.8Z"/><path fill="#a96e27" d="M233.6 103.6a2 1.5-171.9 0 1 2.2-1.2 2 1.5-171.9 0 1 1.9 1.7 2 1.5-171.9 0 1-2.3 1.2 2 1.5-171.9 0 1-1.8-1.7Z"/><path fill="#fff4ab" d="M126.3 106.5q-1.8.1-1.7 1.5.1 1.8 2.6 1.1c.4 2-.6 3.6-2.5 4.2q-8 2.5-15.5-1.7a1.2 1.2 15.6 0 1-.6-1l.1-3a.4.4 67.5 0 1 0-.1q.7-1.2.4.1 6.7-5.5 14.5-3.8 2 .5 2.7 2.7Z"/><path fill="#a96e27" d="M245 103.5q1.4.2 2 1 .6 1.1-.3 1.8-.6.4-1.8.2-1.8-.7-1.7-2 .1-1 1.9-1Z"/><path fill="#854d21" d="M126.3 106.5q2.1-.4 2.2 1.2 0 1.2-1.3 1.4-2.5.7-2.6-1.1-.1-1.4 1.7-1.5Z"/><path fill="#63733c" d="M59.9 107a8 5.4-78.4 0 1 3.7 8.8 8 5.4-78.4 0 1-7 6.7 8 5.4-78.4 0 1-3.6-8.9 8 5.4-78.4 0 1 6.9-6.7Z"/><path fill="#edb75d" d="M191.4 129.5q1.8-1.9 4-2.3 8.3-1.5 14.7-4 12.8-5 20.1-15.9.5 2-.3 4.2a16 16 0 0 1-7 8.2q-14 8.8-31.5 9.8Z"/><path fill="#a96e27" d="M118 109.3a2.1 1.4-13.9 0 1-1.8 1.9 2.1 1.4-13.9 0 1-2.5-1 2.1 1.4-13.9 0 1 1.8-1.8 2.1 1.4-13.9 0 1 2.4.8Z"/><path fill="#e0e4e6" d="M169.3 114.5a20.5 20.5 0 0 1-30.3 4.8l.3-9.8q2.4 6.7 9.3 8 6.8 1.5 13.4-.7l7.3-2.3Z"/><path fill="#c45b2c" d="M238 111a2.1 1.4-172.2 0 1 2.3-1 2.1 1.4-172.2 0 1 1.9 1.7 2.1 1.4-172.2 0 1-2.3 1.1 2.1 1.4-172.2 0 1-1.9-1.7Z"/><path fill="#a96e27" d="M125.3 116.3a2 1.3-6.3 0 1-1.8 1.5 2 1.3-6.3 0 1-2.2-1 2 1.3-6.3 0 1 1.9-1.6 2 1.3-6.3 0 1 2.1 1Z"/><path fill="#edb75d" d="M231 115.2q5.2 2.4 9.5 2.2c6-.3 8.6-.6 11.9.2a.5.5 16.4 0 1 .3.6q-1.2 3.3-4.2 5l.5-.7a.2.2 4.6 0 0-.3-.4q-12.9 5.8-22.2-2.4l4.4-4.5Z"/><path fill="#c45b2c" d="M226.5 119.7q9.3 8.2 22.2 2.4a.2.2 4.6 0 1 .3.4l-.5.7c-4.8 3.3-9.3 2.8-14.5 3.1q-.5-.4-2-.5-.6-.8-2-.9-1.4-.8-2.1-.3-1.1-2-3.3-3.6 1.3-1.2 1.9-1.3Z"/><path fill="#435223" d="m76.7 123 1.3 6.5a.7.6-77.4 0 1-1 .7l-3.1-2.4a2.4 2.3 48.8 0 0-2.6-.2q-5.7 3.3-5.7 10 0 1.3 1.5 6.5.5 1.6-1.3 2.5-6-6.4-4.1-15.7c.8-4.4 4.1-9.5 8.8-10.4q3.3-.5 6.2 2.6Z"/><path fill="#63733c" d="M65.8 146.6q1.8-.9 1.3-2.5-1.5-5.2-1.5-6.4 0-6.8 5.7-10a2.4 2.3 48.8 0 1 2.6 0l3.1 2.5a.7.6-77.4 0 0 1-.7l-1.3-6.4q4.6 9-1.8 19.3-2.3 3.6-4.9 4.4-1 .3-4.2-.2Z"/><path fill="#fde076" d="M191.1 127.6a.7.7-71.3 0 1-.7-.5l-.1-.3 12.2-2.7h.1l-.3.2a.1.1-55.3 0 0 0 .3h.3a.2.2 45.5 0 1 0 .4l-11.5 2.6Z"/><path fill="#020102" d="M230 125q-3 2.7-6.5 4.8-7.4 4.6-16.5 8a.6.6 79.3 0 0-.4.6l.8 19.7a.8.8 88 0 1-.8.9l-20.5.8a1.6 1.6-1.2 0 1-1.7-1.6v-15.6a.6.6-45 0 0-.5-.5h-3.2a.5.5-1 0 0-.5.5l.6 16a1.4 1.4 85.2 0 1-1.2 1.5l-4.7.5a.4.4 37.6 0 0-.2.7q1 .7 1.5 1.7 8.8 14 2 29l-.3 2q-.2 1.4-2.5 1.7l-7.1 3a4.5 4.5-49.6 0 1-2.8.1q-10.3-2.4-19.9 3.3a.9.8-32.7 0 0-.3 1.2q3.6 5.2 8.3 10.5a32.7 32.7 0 0 0 40.2 8.7q6-4.7 7.6-6.3 4.7-4.8 10.7-16.3 3-5.6 7.8-20.4 7-21.2 12-48 .3-2 0-5.7 1.6.1 2.1.5a271 271 0 0 1-20.7 75.3c-4.5 10.3-12.4 21.4-23.8 25q-19.5 6-34.2-7.3-3.5-3.2-8.4-10-9.8-13.5-18.9-32.5-8.3-17.6-11.6-42.3 11.4-.3 17.9-7.7.2-.3 1-.2.6 0 .9.2 10 7.9 23.7 10.8c23.3 4.9 49 2 68-13q.7-.4 2.1.3Z"/><path fill="#733236" d="M232 125.8q.2 3.6-.1 5.7-5 26.8-12 48-4.9 14.8-7.8 20.4-6 11.5-10.7 16.3-1.6 1.6-7.7 6.3 5.2-7 2-15.4c-3.2-8.5-11.5-12.5-20.3-11.4q2.3-.3 2.5-1.7l.4-2q6.6-15-2-29-.7-1-1.6-1.7a.4.4-84.6 0 1 .2-.7l4.7-.5a1.4 1.4 85.2 0 0 1.2-1.5l-.6-16a.5.5-1 0 1 .5-.5h3.2a.6.6 45 0 1 .5.5v15.6a1.6 1.6-1.2 0 0 1.7 1.6l20.5-.8a.8.8 88 0 0 .8-.9l-.8-19.7a.6.6 79.3 0 1 .4-.6q9-3.4 16.5-8 3.5-2.1 6.5-4.9 1.4.1 2 1Z"/><path fill="#481d14" d="M158 145.8c-7.1-1.4-12.7 1.5-18 5.8a.8.8-47.3 0 0 0 1.3c3.7 2.5 8.4 6.7 9 11l1.5 7.8q.6 3.2 3.2 4 1.7.7 5.6.4-2.7 2-7.4 1.8-2.2-.2-3.3-1.2a2 1.8 13.4 0 1-.5-.8q-1-3.3-.8-4.9c1-5.1 1.7-9.6-2.6-12.6-4.7-3.4-10.6-.2-13.4 4.1q-2.4 3.7-3 7.4a.5.5-50.7 0 1-1 0q-6.8-17.4-8.8-34a.7.7-88.7 0 1 .8-.8l1.8.3a2.3 2.1 40 0 0 .9 0c3.5-1 6.8-1.7 9-4a2 2 12.1 0 1 .8-.5q1.8-.6 2.8-2.3a.6.6 35.6 0 1 .9-.2 58 58 0 0 0 21.8 10.6 1 1-81.7 0 1 .6.9v5.9Z"/><path fill="#c1c234" d="m178.4 129.6 9.6 1.6-2.2 1.9q-2.6.2-5-.5a3.5 3.5 75.8 0 1-1.4-.8l-3-3a.3.3 85.4 0 1 .4-.4l1.6 1.2Z"/><path fill="#fde076" d="M188.7 131.2q-.5 1-1.3 1.8a.2.2 22.7 0 0 .1.4l6-.3a.2.2-50.6 0 1 0 .5c-5.9 1-10.5 2-15.8-1.6a.1.1 41.8 0 1 0-.2h.1q3.6 1.9 8 1.3l2.2-1.9h.7Z"/><path fill="#b0d5ea" d="M205 142.8q-9.3 1.3-18.6 1-.2-.9 0-1.5a.7.7 2.7 0 1 .6-.6q8.7-.6 17.2-3a.5.5 80.5 0 1 .6.4l.2 3.7Zm-27.6-.8q.2 1.3-.8 1.8a.8.7 27.4 0 1-.3 0h-16.5l-.2-3.4a.4.4-88.3 0 1 .4-.5l17.4 2.1Z"/><path fill="#fff" d="M159.8 143.9h16.4a.8.7 27.4 0 0 .4 0q1-.6.8-1.9h.4a.6.6-54.6 0 1 .6.5l.6 15.6a.6.6 89 0 1-.6.7H160a.5.5-89.4 0 1-.5-.5l.2-14.4Zm45.2-1.1.7 14.2a.5.5-55.4 0 1-.4.5l-18.6.7a.3.3 89 0 1-.2-.3l-.1-14.2q9.3.4 18.6-1Z"/><path fill="#733236" d="M158 145.8q-.6 11.7 1.7 24.5.4 2.5-.4 5.8-4 .3-5.7-.3-2.5-.9-3.1-4-1-4.8-1.4-8c-.7-4.2-5.4-8.4-9.1-11a.8.8-47.3 0 1 0-1.2c5.3-4.3 10.9-7.2 18-5.8Z"/><path fill="#020102" d="m51.5 201.7-6.5-2q-.9-1.4-1.8 0l-5.5 8a.6.6-37.6 0 1-1-.2v-.5l.3-.3q1-.6.4-.7l9.4-13.8q1.7-2.1-3.4-4.8a.8.8 41.3 0 0-.9 0q-.9.7-1.2 1.6l-17.4 25.2a2.2 2 71.9 0 0-.3.7q-.7 2.4 1.2 3.8C32.2 224.4 42 229 50 232.3a.7.7 32.9 0 1 .3 1.2l-5.5 5.9q-.4 0-.6.2-.2.3.4.3-3 3.6-3 8a2.7 2.6-57.6 0 0 .3 1c2.3 5.5 9.2 7.3 14.5 5.9q2.7-.7 2.6-3.3c-.2-4.6-8.6-5.8-11.8-5a.3.3 17.1 0 1-.4-.1.3.3 67.9 0 1 .1-.4q3-1.6 6.3-1.2a.6.6 79.5 0 0 .6-.5q.3-3.2-.8-5.8a.2.2-76.3 0 1 .4-.3q2.4 3 1.9 6.6a.7.7-75.1 0 0 .4.8q3.4 1.3 5.5 5.3a4 3.8-84.5 0 0 1 1.1q4.2 3.8 2.6 10a.1.1-36.6 0 1-.3 0q.3-4.2-2.6-8.3a.9.9 36.6 0 0-1.5.2q-.8 2.1-3.5 2.6a.9.9-26 0 0-.7.7c-1 5.3 3.5 13 9.8 11.5a2 2 17.6 0 0 .8-.4q2.5-2 3.1-3.2 4-7.1 3.7-16.3c-.4-11.8-7-17.9-17.7-20.8q-1.2-.3-4.5-2l-19.3-9.7a.8.8-61.6 0 1-.3-1l4.3-7.4q.8.5.5 1.2-.6 1.6-2.9 4.4a1 1 62.7 0 0-.2.7v1.5a.6.6 11.7 0 0 .4.6l18.5 8.4q.6.4 1.5.3a.7.7-4.3 0 0 .7-.8l-.2-2.9a.7.7-17.5 0 1 .4-.6q1-.7 2.2.2l.2 2q-.3 1.6 0 3.3a1 1 4.8 0 0 .7.7c1.6.6 3.6 1 5 1.7q8 3.9 11.2 12.6a2 2 88.4 0 0 1.3 1.2l11.7 3.7a.4.4-81.3 0 0 .5-.4l.1-14.2q.6-1.1 1.6 0v14.7a.4.4-1.4 0 0 .4.4l73.7-2.8q-.1-.3.5-.1h1.3a1.1 1-85.8 0 0 .7-.6l3-6.7 1.1.1q.2.9-.4 2a229 229 0 0 0-6.1 15.5.8.7-57.2 0 0 .1.8l11 11a1.2 1.2 40.9 0 0 1.9 0l8.8-11.8a1.3 1.3-42.2 0 0 .1-1.4l-9.2-15.6q1.3-.6 2.5 1l2.8 4.6a1 1-16.6 0 0 .8.4l73.3-2.8a.9.9-89.7 0 0 .8-.8l.5-9.4.3-.9q.3-1 1.4-1.2 1.6-.3 2.2-.6l23.5-4a.9.9-12.4 0 0 .7-1q-1-4-4-7.5l-4.8-10a1.2 1.2 69 0 0-1.4-.6q-5.6 1.6-11.4 1 0-1 .2-1.4 15 .6 23.5-11a1.2 1.2-41.6 0 0 .1-1.3q-9.2-16.3-21-32.6 1 1.1-.6-1.2 1.1-.7 2.4 1.5 1.5 2.4 3 4a3.5 2.8 89.7 0 1 .4.4l17.9 27.3a1.1 1.1-54.9 0 1 .1.8q-1 3.9-4.2 6.2-2 1.2-.7 2l4.3 8.8c.8 1.8 1.3 3.7 2.4 5.4a1.7 1.6-76.6 0 1 .2.3l6.2 13.1a1.8 1.8 62.8 0 1-.8 2.3c-3 1.7-6.6 2-9.8 3q-8.3 2.2-14.5 3.3a1.2 1.2 80.8 0 0-1 1.4q.9 6-3.4 11.6l-.5 1.1a2.2 2-22.9 0 1-.4.9q-.7 1-.6 1.4a1.3 1-29.2 0 0 1.9.3q3.2-3 4.7-4a2.2 2.1-67.9 0 1 .8-.3q6.3-1.4 7.2 4.6.2 1.3-1.3 4.3a2.7 2.7-33.1 0 0-.3 1.3c.2 2.3.7 4.6-1.4 6.3a1.6 1.6-13.7 0 0-.5.9q-.3 1.1-1.5 1.7-1.7.2-1.4 2-1.5 2-3 2.9-5.1 2.8-10.9.5a1.9 1.6-10 0 1-.4-.3q-1.3-1-3-1.2l-.4-.7a.4.4 39 0 0-.7 0q-.5.9.1 1.4-.3 1.4-1 2.6a.9.9-74.8 0 1-.8.4l-34.1 1.4a1 1 84.1 0 0-1 1.1L224 302a2.2 2.2-21.8 0 1-1 2.1q-3 2.1-6.8 3-3.9 1-10 1.5a1.5 1.5 88.1 0 0-1.3 1.4q0 5-.4 7-.7 4.6-.6 6.7c0 4.3-.8 9.3-1 13.9q-.6 17.3-.3 26.9 0 2 1.8 3.5 1.4 1.1 2.5 3.3a1 1 79.2 0 0 .7.5c5.9.9 7.3-4.9 10.8-8q6-5.1 13.7-2.1a3.6 3.5-15.4 0 1 1 .4q7.6 5.6 5.3 15.2-.3-.7-1.2-.6a1 .9 11.2 0 0-.6.4q-2.9 4.4-7.3 6.1-9.2 3.5-18.6.2l-7-2.6a.3.3 89.5 0 0-.3.4c.6 1.6 4.6 3.6 7 5a4.3 4.2-21.7 0 0 1 .3q2.1.6 4 1.7l-3.7-.3q-1.8-1.3-3.8-1.7-.6-.1-1 .5 0 .2.2.3-.7.7-1.6 1a.3.3-75.1 0 0 0 .1l-2.7 2.6a1.7 1.6-66.8 0 1-1.2.5q-7.9-.1-12.9-.4c-1 0-2-.8-2.9-.9a.7.7 1 0 1-.6-.6v-1.8a2 2 53 0 1 0-.7l1.3-3.8a2.4 2.4-49 0 0-.1-1.7l-1.8-3.8a2.8 2.6-65.3 0 1-.2-.6q-1.1-6.5 4-10.3a1.7 1.6 13.3 0 1 .4-.2l3.2-1.7a1 1-14.6 0 0 .5-.8c.1-3.4-.2-8 .5-11.5.4-1.8 0-3.4 0-5.7.2-3.7.3-7.7.8-11.9.7-4.4.4-8.7 1-13 .5-2.6.3-6.8 1.3-10.1q.3-1 .1-3a.8.8-85.7 0 0-.5-.7q-6-1.5-10.8-4.2-2.3-1.3-4-3.1a1.8 1.8 33.7 0 1-.4-1.9q.7-2 1-4a3.3 3 63.1 0 1 .3-.7l5.7-15a1 1 21.6 0 0-.6-1.2h-1q-5.6-.3-14.5.2l-50 1.8a1 1 20 0 0-.8.4q-.8 1-.7 2.8.9 9.8.9 25.5 0 5.1-1 7.7a1 1-88.1 0 1-.7.6q-3.6 1.1-8.2.6l-7.1-.8a1.7 1.7 7.8 0 0-1.9 1.4q-.2 1.3-.8 2a1.2 1.2-27 0 0-.3 1q0 1.6-.7 2.3a1.2 1.2-25 0 0-.3 1q0 1.3-.8 2.6a1.8 1.7 70.3 0 0-.1.4l-6 18.4a.3.2-39.4 0 0 0 .1l-.4 1.8L86 367q-1.4 4.3-2 7a2 2 49.4 0 0 0 .9l.6 4.5-.3-.3a.5.5 18.4 0 0-.8.4q.2 5.8-5.7 6.4a.6.6 77.3 0 0-.5.8q.3 1 1 1.4.5.3 1.8-.3 1.4-.7 1.9-.1l-4.8 3a1.1 1.1 79.3 0 0-.5.7q-.3 1.2-1 2a1.3 1.3-72.5 0 1-.8.4q-4.5.5-9-1.6a9.4 9.2-23.7 0 0-1.2-.5q-4-1.2-7.1-3.5a1.3 1.3-75 0 1-.5-.9V386q1.1-1 .3-1.8v-.2q1.1-2.5-.8-2.4-2-1-4-1.6l-4.2-1.4Q44 376.2 41 372q-6.7-9-3.3-19.1 1.9-5.7 7.8-6.7-4.9 2.4-6.2 6a.6.6-13.7 0 0 1 .7q2.4-2.6 5.6-4.4 1-.6 4-.7 2.6-.1 4.6-1.2 2.3 0 4 3 2 3.4 2.3 10a2 1.6-58.5 0 0 0 .3q1.5 5.3 5.1 8.1a1.4 1.4-27.7 0 0 1 .3l6.3-.2a1.4 1.4 8.5 0 0 1.3-1l18.3-51.4a1.8 1.8 24.8 0 0-.8-2.1c-1.1-.7-1.9-1.4-3.3-2q-5-2.6-8.8-8a1 1-53.9 0 1-.1-.8q.7-2.4 2.2-4.8 4.2-7 9.2-14.6a1.5 1.5 24 0 0-.8-2.2l-2.2-.6a1.4 1 55.9 0 1-.2 0L66 270a1 1 72.6 0 0-.4-.1l-5.9-.4a.7.7 17.3 0 0-.6.4c-1 1.5-4.3.6-5.6-.1a1.9 1.8 57 0 0-1-.3l-4.5.2a1.8 1.6 48 0 1-.5 0c-3-.9-4.5-3.6-6-6.3a3.4 3.4 32.4 0 1-.4-1.9q0-.4-.3-1a4.5 4.4 26.8 0 1-.6-1.6q-.5-4.3.6-7.2a1.7 1.7-47 0 0 0-1.3q-1-2.3-.7-4 1.4-5 3.1-6.9 2.2-2.5 4.3-5.3a1 1-47.2 0 0 0-1.3q-.4-.4-.9-.6-8.4-3.9-18.8-9.8-1.2-.6-2.7-1.9-1.5-1.3-2.4-2.5a3.4 3.4 43.4 0 1-.2-4l12.7-18.8a2.9 2.9-46.9 0 0 0-3.3q-3.2-4.1-3.6-8a2.8 2.6 52 0 1 0-1q.9-3 2.8-5.5 7.5-9.8 17.4-17.7 6.2-4.3 11-4.9 2.9-.3 6 2c3.7 2.8 3.8 8.7 3 12.8q-3 14.5-10.4 28.3c-1.9 3.5-6.2 4-10 3.7Z"/><path fill="#b0d5ea" d="M66.9 157q-6 1.6-11.2 4.5c-8 4.6-14 10.3-17 19.2a1 1 21.3 0 0 .5 1.3q4.8 2 9.6 5.9c3.5 2.8 5.6 7.7 7.8 11.7q-6 1.3-11-1.5a1 1-56.9 0 1-.4-1.4l3.4-4.4a.4.4 46.6 0 1 .6 0l2.6 3.8a.3.3 18.5 0 0 .6-.2q-3.8-10.4-14.3-11.7a.4.4-82 0 0-.4.3.4.4-81.7 0 0 .2.4l2.6 1a.8.8-61 0 1 .4 1.3l-2.8 3.6a.8.7 41 0 1-1.1 0q-6-5.9-.8-12.8 3.7-4.8 6.8-8 5-5.4 7.4-7.5 7.8-6.4 16.5-5.5Z"/><path fill="#fff" d="M66.9 157q3.5 2.8 3.8 6.3.4 4.8-1 9.5-3.8 13.4-10.3 24.6-.9 1.6-2.8 2.2c-2.2-4-4.3-8.9-7.8-11.7q-4.8-3.9-9.6-6a1 1 21.3 0 1-.6-1.2c3-9 9.1-14.6 17-19.2q5.2-3 11.3-4.5Z"/><path fill="#9e982c" d="M251.8 183.4c1.2-7.6 0-15.7-8.6-18.1a1.8 1.8-59 0 0-1.7.4l-6.3 6a13.2 10.2 74.3 0 1 2.4-9.2 13 10.2 73.8 0 1 2.8-2.4 13.2 10.2 74.3 0 1 9.5 1 13.1 10.2 74.3 0 1 5.6 8.8 13.2 10.2 74 0 1 .1 7.4 13.2 10.1 74.9 0 1-3.8 6.1Z"/><path fill="#fff" d="M266.4 158.8q11.7 16.3 21 32.6a1.2 1.2-41.6 0 1-.2 1.4q-8.5 11.5-23.5 10.9-.5-.6-.5-1.5-.4-8.2 4.1-14.9a3 2.9-19.6 0 0 .4-.8q1.8-5.3.3-11l-1.6-7a2.9 2.8-52.2 0 1-.1-.6v-9.1Z"/><path fill="#c1c234" d="M251.8 183.4a13.2 10.2 74.5 0 1-9.6.3 13.2 10.2 74.2 0 1-7-12l6.3-6a1.8 1.8-59 0 1 1.8-.4c8.5 2.4 9.7 10.5 8.5 18.1Z"/><path fill="#9e982c" d="m109.8 180.3-.7-5.8a3.2 3.2-1.4 0 0-3-2.8q-3.3-.2-7 1.6c-.8-5.1 3-6.3 7.4-6.7a.9.8 55 0 1 .5 0l3 1.6a.8.8 86 0 1 .3.3q3.2 5.7-.5 11.8Z"/><path fill="#c1c234" d="M109.8 180.3q-5 3-9.2-2.1-1.2-1.5-1.5-4.9 3.7-1.8 7-1.6a3.2 3.2-1.4 0 1 3 2.8l.7 5.8Z"/><path fill="#63733c" d="M70.1 206.8a2 2 72.6 0 1-2-1q-4.2-8-.3-17 1.8-4 6.7-4.7c2-.3 2.9.3 3.6 2.3 2.8 7.2 2 19.1-8 20.4Z"/><path fill="#899398" d="m46.8 192.2-5.5-3.2q.3-1 1.3-1.6a.8.8 41.3 0 1 .8 0q5.1 2.7 3.4 4.8Z"/><path fill="#9e982c" d="M118 214.6c-1-6.6-.2-13.6-7.2-17-5.7-2.9-9-.1-12.3 4.6a.2.2 61.4 0 1-.4 0v-2.7a15.2 12 82.4 0 1 7.8-11.5 15.2 12 82.6 0 1 11.8 3.5 15.2 12 82.4 0 1 4.4 12.9 15.2 12 82.3 0 1-4.1 10.2Z"/><path fill="#fff579" d="m41.3 189 5.5 3.2-9.4 13.8-.4.7-.2.3q-.4.3-.6.8L32 215a.8.8-61.6 0 0 .3 1.1l19.3 9.7q3.3 1.7 4.5 2c10.7 3 17.3 9 17.7 20.8Q74 258 70 265q-.6 1.1-3.1 3.2a2 2 17.6 0 1-.8.4c-6.3 1.6-10.7-6.2-9.8-11.5a.9.9 40.9 0 1 .7-.7q2.7-.4 3.5-2.6a.9.9 36.6 0 1 1.5-.2q2.9 4.1 2.7 8.3a.1.1-36.6 0 0 .2 0q1.6-6.2-2.7-10a4 3.8-84.5 0 1-.9-1.1q-2-4-5.5-5.3a.7.7-75.1 0 1-.4-.8q.5-3.6-1.9-6.5a.2.2-76.3 0 0-.4.2q1.1 2.6.8 5.8a.6.6-49 0 1-.6.5q-3.2-.3-6.3 1.2a.3.3 67.9 0 0 0 .3.3.3-5.6 0 0 .3.3c3.2-1 11.6.3 11.8 4.9q0 2.6-2.6 3.3c-5.3 1.4-12.2-.4-14.5-6a2.7 2.6-57.6 0 1-.2-1q0-4.3 2.9-7.9-.3.1.2-.5l5.5-5.9a.7.7 32.9 0 0-.3-1.2c-8.1-3.3-17.9-7.8-25.3-13.4q-1.9-1.5-1.2-4a2.2 2 71.9 0 1 .3-.6L41.3 189Z"/><path fill="#9e982c" d="M243.4 208.3 241 200a1 1 75.5 0 0-1.3-.7l-4.1 1a.5.5-8.7 0 1-.6-.5l-.2-1.6a7.8 6 86.7 0 1 5.7-4.5 7.8 6 86.5 0 1 5.2 4.5 7.8 6 86.4 0 1-.5 8 8 6 87 0 1-1.8 2.1Z"/><path fill="#b64c52" d="M193.8 222.5a32.7 32.7 0 0 1-40.2-8.7q-4.7-5.3-8.3-10.5a.9.8-32.7 0 1 .3-1.2q9.6-5.7 20-3.3a4.5 4.5-49.6 0 0 2.7-.2l7.1-3c8.8-1 17.1 3 20.3 11.5q3.2 8.4-2 15.4Z"/><path fill="#c1c234" d="M118 214.6a15.2 12 82.8 0 1-8 3 15.2 12 82.3 0 1-9.3-6 15.2 12 82.6 0 1-2.7-12l.1 2.5a.2.2 61.4 0 0 .4.1c3.2-4.7 6.6-7.5 12.3-4.7 7 3.5 6.2 10.5 7.2 17Z"/><path fill="#854d21" d="M285.3 197.8q-.7.8-.7 2-1.3-.8.7-2Z"/><path fill="#faabad" d="M178.3 208.7a.4.4 6.4 0 0 .6-.5q-2-4.3-6-7a1.4 1.4 51.9 0 1 .3-2.4l1.2-.5a1.7 1.6-55.2 0 1 .6-.2q7 0 8.7.5 10.4 3.5 11.2 14.3.1 2.6-1.3 5.6a2 1.9 84.6 0 1-.6.8q-3.9 3-4.8 3.2-14 4-24.5-5.3-6.9-6-11.3-11.7a1.3 1.3 67.7 0 1 .9-2.2c7.2-.8 13.5-1.3 20.4 1.9a1 .8 70.1 0 1 .2.1l4.4 3.4Z"/><path fill="#c1c234" d="m234.8 198.2.2 1.6a.5.5-8.7 0 0 .6.4l4.1-1a1 1 75.5 0 1 1.3.8l2.4 8.3a7.8 6 86.3 0 1-6.9-1 7.8 6 86.6 0 1-1.7-9Z"/><path fill="#854d21" d="M45 199.6h-1.8q1-1.3 1.8 0Z"/><path fill="#b67730" d="M283.4 200.8q-1.8 2.5-5.2 3.5-.9-.7-.3-1.2 3.4-2.6 5.5-2.3Z"/><path fill="#fff579" d="M283.4 200.8 296 227a1.7 1.7 71 0 1-1.1 2.4l-21 4.7a.3.3-77.1 0 0-.1.1q-.5.7-2 .4a1.2 1.2 78.8 0 1-.7-.5q-1.7-2.4-4.5-3.9a.2.2-9.2 0 0-.3.4 12.2 12.2 0 0 1 2.2 15.7c-1.4 2.4-3.2 5-2.3 7.3a1.3 1.3-30 0 0 2.1.6c3.6-2.9 5.9-5.9 10-4a1.7 1.6 87.5 0 1 .8.7c2.9 5.6-5 9.6-9.3 10.4q-2.5-.5-5.1 0l-2.2-.8q-3.4-4.8-3.4-7.3-.1-3.3-.5-6.8l1.2-15.3a2 1.9 64.7 0 1 .3-.9q1-1.7 3.3-2l24-4.1a.4.4 71.2 0 0 .3-.6l-9.3-18.3a1.3 1.2 30.6 0 1-.1-.5v-.4q3.3-1 5.1-3.5Z"/><path fill="#854d21" d="m281.2 214.7-4.3-8.3a1.6 1.5-86 0 0-.5-.5q-1.3-1-2.9-.8-5 .8-9.9 1.3v-1.3q5.7.6 11.3-1a1.2 1.2 69 0 1 1.4.6l4.9 10Z"/><path fill="#edb75d" d="M206.5 221.5q-12.7 12-29.6 12.4-8 .2-14.1-2.6a55.7 55.7 0 0 1-21.4-18 .8.8 45 0 0-1.2 0v.7l-2-5a.5.5 15.6 0 1 1-.6c2.4 3.2 4.6 6.4 7.8 9.2 9.2 8.1 18 14.4 30.2 13.9q6.7-.3 11-1.7l8.6-2.8a6 5.5-66.4 0 0 1-.5l8.7-5Z"/><path fill="#c45b2c" d="m206.5 221.5 6-6.3a.1.1 74.1 0 1 .1.1l-1.6 6.3-6.5 4.7a.2.2 33.8 0 0 .1.4l4.1 1-1 .6q-1.3-1.4-3.4-1.1a1.8 1.8 21.5 0 0-1 .4l-5.6 4.6q-.8-.3-1.5-.1-.7.2-.6.6 0 .4.6.7c-2.5-.3-4.7 1.2-6.9 2.2a1.1 1.1-64.1 0 1-.2 0l-10.3 2.4q-1.2-1.7-2.5-1l-6.2-.6q-.5-.2-1.2 0l-13.1-5.2-.2-.4a.5.5 1.7 0 0-.3-.3q-.4-.2-.8 0-6-6-14-6.4 2.3-1.1 5.1-1.4a.3.3 69.4 0 0 .2-.5l-5.6-8.2v-.7a.8.8 45 0 1 1.3 0c5.5 7.6 13 14.1 21.3 18q6.2 2.8 14 2.6 17-.4 29.7-12.4Z"/><path fill="#899398" d="M84 230q-4.6-3.1-10.1-3.1c-2.8 0-6.2-.2-7.9-1.4q-3.9-2.8-8.7-2.7l-.2-2q2.5-1.4 5.1-.5c2 .8 3.5 2.7 5.2 4.3 2.2 1.9 4.4 2 7.2 1 2-.6 3-.6 4.7-.1a1.3 1.2 73.6 0 1 .6.3l4.2 4.2Z"/><path fill="#b0d5ea" d="M84 230q1.5 1 3.8 1.4v14.2a.4.4-81.3 0 1-.6.4l-11.7-3.7a2 2 88.4 0 1-1.3-1.3Q71 232.5 63 228.6c-1.5-.8-3.5-1.1-5.1-1.7a1 1 4.8 0 1-.7-.7q-.3-1.7 0-3.3 4.8-.1 8.8 2.7c1.6 1.2 5 1.4 7.8 1.4q5.5 0 10.2 3Z"/><path fill="#899398" d="m257.3 229-.3 1a39.8 39.8 0 0 1-20.5-2.7c-4.7-1.6-9.4.6-14.4 2q-4.8 1.5-13.4.6 1.6-1.3 1.9-2.2l7.4.2a4.2 4 35.6 0 0 1.3-.2l9.1-2.9q6.6-1.7 12.5.3a3.8 3.7 70.1 0 1 .9.4q2.4 1.6 4.2 2 4.3 1 11.3 1.5Zm-121.7.1 4 2.9q-4.1-1-6-.7-5.7 1-11.4.1a6.8 6.7 57.7 0 1-1.4-.3q-6.9-2.5-13-2.5a4 3.8-52.7 0 0-1 .2q-3.3.9-7 2.3-3 1.3-10.4 1.4v-1q8.7-1.3 16.6-4.9c1.5-.7 6.4-.4 8.7.4l8.6 2.1q4.5 1.2 9 .4 2.4-.5 3.3-.4Z"/><path fill="#fff" d="m257 230-.5 9.3a.9.9-89.7 0 1-.8.8l-73.3 2.8a1 1-16.6 0 1-.8-.4l-2.8-4.5 10.3-2.3a1.1 1.1-64.1 0 0 .2-.1c2.2-1 4.4-2.5 7-2.2l4.2 2.6a1.1 1.1-50.4 0 0 1.4-.2l6.8-6q8.7 1 13.4-.4c5-1.5 9.7-3.7 14.4-2.1a39.8 39.8 0 0 0 20.5 2.6Z"/><path fill="#fff" d="m207.7 228.3-6 5.4a1 1-63 0 1-.9.2q-1.3 0-3.1-1.7l5.7-4.6a1.8 1.8 21.5 0 1 .9-.4q2.1-.3 3.4 1.1Z"/><path fill="#020102" d="M210.6 227.7q-.3 1-2 2.2l-6.7 6a1.1 1.1-50.4 0 1-1.4 0l-4.3-2.5q-.5-.3-.6-.7 0-.4.6-.6.7-.2 1.5.1 1.8 1.6 3.1 1.7a1 1-63 0 0 .8-.2l6-5.4 1.1-.5q1-.3 1.9-.1Z"/><path fill="#fff" d="m153.8 231.1-4.1 4.3a.6.6-52 0 1-.8.1l-10-6.3q1.8-1.8 4.1-1.1l10.8 3Z"/><path fill="#fff" d="m139.7 232 7.3 4.2q-3.5 1-7 1c-7.2 0-22.2-.4-35.3.7a.3.3-2.5 0 0-.3.2v.3a.5.5 1.3 0 0 .5.5q21.9 1.4 35.6 1.5 10.7 0 22.3-1.6a1.1 1.1 26.6 0 1 1.2 1.3l-.5 3.6-73.7 2.8a.4.4-1.4 0 1-.4-.4v-13.6q7.3-.1 10.5-1.3 3.6-1.5 6.8-2.4a4 3.8-52.7 0 1 1.1-.2q6.1 0 13 2.5a6.8 6.7 57.7 0 0 1.4.3q5.7.8 11.4 0 1.9-.4 6 .6Z"/><path fill="#020102" d="m139 229.2 9.9 6.3a.6.6-52 0 0 .8 0l4-4.4q.4 0 .8-.5.4-.3.8 0a.5.5 1.7 0 1 .3.2l.2.4-1.5 1.7-3.6 4.2a1.4 1.4-54.1 0 1-1.8.3l-1.9-1.2-7.3-4.2-4.1-2.9q.8-1.2 3.3.1Z"/><path fill="#899398" d="m155.8 231.2 13.1 5.1-2.9 6.7a1.1 1-85.8 0 1-.7.6H164l2-4.2a1.5 1.4-62.9 0 0-.6-1.9q-2.8-1.5-5.6-2a2 2-26.9 0 1-.6-.1l-5-2.5 1.6-1.7Z"/><path fill="#e0e4e6" d="m154.3 232.9 4.9 2.5a2 2-26.9 0 0 .6.2q2.8.4 5.6 2a1.5 1.4-62.9 0 1 .6 1.8l-2 4.2q-.6-.2-.5 0l.5-3.5a1.1 1.1-17.3 0 0-1.3-1.3q-11.5 1.6-22.2 1.6-13.7-.1-35.6-1.5a.5.5 1.3 0 1-.5-.5v-.3a.3.3-2.5 0 1 .3-.2c13-1 28.1-.6 35.3-.7q3.5 0 7-1l2 1.2a1.4 1.4-54.1 0 0 1.7-.3l3.6-4.2Z"/><path fill="#020102" d="M64 251.2a.3.3 10.8 0 1-.4.3c-3.7-3.8-6.3-8.8-3.7-13.8q1-1.8 2.2-2.3a.3.3-85.7 0 1 .4.3q-3.7 5.6-.4 11.8 1.5 2.7 1.9 3.7Z"/><path fill="#e42329" d="m176.3 237 9.2 15.5a1.3 1.3-42.2 0 1 0 1.4l-9 11.7a1.2 1.2 40.9 0 1-1.7.1l-11-11a.8.7-57.2 0 1-.2-.8c3.2-8.3 4.8-12.8 6.1-15.4q.6-1.2.4-2l6.2.4Z"/><path fill="#b67730" d="M253.8 272.4q-11.3-1.3-22.6-.6-8.3.6-12.4.4-16.5-.6-34-.6c-14.4 0-32.3-1.3-47.1 0-11.4.9-20.3.3-34 .4-3.2 0-9.8 0-11.6-2.3a1.6 1.4-34 0 1 .6-2.1q2-1.2 4.4-1.2 29 .1 57.5-1.1l7.9-.6q4.7-.3 10 1.2l2.5 2.5a1 1-48.5 0 0 1.6-.1l8.7-11.4a1.3 1.3 17.3 0 1 1-.5l19.9-.8a.7.7-89 0 0 .6-.6q.5-6.4-1.5-4.8-8.2-.5-16.6.6-3 0-5.6-5.8a.4.4 77.4 0 1 .3-.6l72.4-2.8a.3.3-89.1 0 1 .3.4l-2.3 30.4Z"/><path fill="#854d21" d="M75.3 249.5v-5a.5.5 9.1 0 1 .6-.5l11.5 3.6a.7.7-81.6 0 1 .4.7V277a.4.4-77 0 1-.6.4L69.7 269a.6.6 32.4 0 1-.2-1q3.8-4.7 5.2-10.9a.5.5-74.8 0 1 .7-.4l5.4 1.7a.5.5-81.5 0 0 .6-.5v-4a1 1 4.6 0 0-.8-1q-2.5-.4-4.8-2.6a1.3 1.2-69.8 0 1-.5-.9Z"/><path fill="#b67730" d="m142.3 258.2 19-.3a.5.5-.6 0 1 .5.5v.3a1.1 1.1-2.2 0 1-1 1.1q-15 1.2-29.5-1.2a.7.7-85.8 0 1-.6-.7v-4.2a.3.3 20.9 0 0 0-.2q-.2-.2-.4-.1 0-.2-.2-.3l-.4-.2-28.3 1a.5.5 87 0 0-.5.6l.3 5q-2.4-1-7.4-2.7-2.3-.8-4.5-3v-5.2a.7.7-1.4 0 1 .6-.6l74.3-3a.7.7-80 0 1 .7 1.1l-2 5a1.1 1.1 9.8 0 1-1 .7l-20.2.7a.7.7 4 0 0-.7.6q-1 5.2 1.3 5.1Z"/><path fill="#c1c234" d="M258.6 246.4q.4 3.5.5 6.8 0 2.5 3.4 7.3-2.6-1-4.4-3.1a1.3 1.3-62.9 0 1-.3-.9l.8-10.1Z"/><path fill="#372818" d="M240.5 249q-12 3.1-25 1.5v-.4a.6.6-4.8 0 1 .5-.6q12-1 24.5-.5Z"/><path fill="#020102" d="m240.5 249-.2 4.8a.6.6-90 0 1-.5.5l-23.8 1a.5.5-1.8 0 1-.5-.5v-4.3q13 1.6 25-1.5Z"/><path fill="#372818" d="M205.3 250.2q-7.3 2.2-16.6.6 8.4-1.2 16.6-.6Z"/><path fill="#020102" d="m130.3 253.4.2 4.6a.6.6 48 0 1-.6.6l-28.7 1-.3-5.1a.5.5 87 0 1 .4-.5l28.4-1h.4l.2.4Z"/><path fill="#fff579" d="M50.1 268.8q-1.8.6-3.5-1-6-5.2-5-13.7a1 1-69.6 0 1 1.5-.6l2.9 2a1.6 1.6-70.5 0 1 .7 1.4q-.6 6 3.6 11.2a.4.4 60.4 0 1-.2.6Z"/><path fill="#a96e27" d="m142.3 258.2 20-.8a3.3 3.3 65.9 0 1 2.5.9l7.8 7.6q-5.4-1.5-10.1-1.1l-8 .5q-28.5 1.2-57.4 1-2.4 0-4.4 1.3a1.6 1.4-34 0 0-.6 2.1c1.9 2.4 8.4 2.3 11.7 2.3 13.6-.1 22.5.5 33.9-.5 14.8-1.2 32.7.1 47.2.1q17.4 0 33.8.6 4.2.2 12.5-.4 11.3-.7 22.6.6-12 1.1-24 1.4l-19.6.6q-8.8.5-19.7.8l-49.5 1.5q-29 .9-50.9 1.8a.8.8-1 0 1-.8-.8v-24q2.2 2.4 4.5 3.1 5 1.7 7.4 2.7l28.7-.9a.6.6 46 0 0 .6-.6l-.2-4.6h.3a.3.3 20.9 0 1 .1.3v4.2a.7.7-85.8 0 0 .6.7q14.4 2.4 29.4 1.2a1.1 1.1-2.2 0 0 1-1.1v-.3a.5.5-.6 0 0-.4-.5l-19 .3Z"/><path fill="#fff579" d="M59 269q-.9.9-2.8.6c-5.4-.8-7.9-7.5-7.7-12.4a.8.8-86.4 0 1 .8-.7l4.7.4a.5.5-77.1 0 1 .4.7l.2 2.6q.4 5.1 4.2 8a.5.5 38 0 1 .1.7Zm209-5.5q5.4 0 9.8-3.6a.3.3 68.7 0 1 .6.3q.2 3.3-2.4 5.3-4.2 3.2-8.1 3.1-3.9 0-8-3.2-2.6-2-2.4-5.4a.3.3-67.8 0 1 .6-.2q4.3 3.6 9.8 3.7Z"/><path fill="#b67730" d="M269.8 261.3q-2.5.7-5.1 0 2.6-.5 5.1 0Z"/><path fill="#fde076" d="M257.5 265.5q6.4 7 15.2 3.7a.4.4 7.3 0 1 .5.7q-.8 1.1-2.5 1.9-7.5 3.2-13.3-3a1 1-66.2 0 1-.2-.8v-2.4a.2.2-66.8 0 1 .3 0Z"/><path fill="#854d21" d="m276.3 267.5-1.4 2q-.3-1.8 1.4-2Z"/><path fill="#481d14" d="M257.5 271.4q-.7-.2-.9.7-.6-.5-.1-1.4a.4.4 39 0 1 .7 0q.2.2.3.7Z"/><path fill="#854d21" d="m218.6 277.2 3 23.8a2.3 2.3-21.7 0 1-1 2.1q-1.3 1-3.6 1.7c-10.3 3-25.4 2.9-33.9-5a1.3 1.3-59.6 0 1-.3-1.4l6.2-19.8a1 1-87.7 0 1 .7-.6q2.1-.6 3.5-.6 8.2 0 25-.5a.3.3 85.5 0 1 .4.3Zm-99.7 3.6q.4 10.7 0 26.7 0 4-.6 6.8a2 2-85.8 0 1-1.8 1.5q-5.2.4-12-1a1 1-74.5 0 1-.7-1.2l1.3-3.7a.9.9-64.9 0 1 1.3-.5l4 2.3a.6.6-5.8 0 0 .7-.8q-2.1-2.5-4.6-3.9-5.7-3.2-13.2-3.6a.4.4 75 0 0-.3.6l.3.5a.2.2 71.7 0 0 .2 0q2.4.3 2.2 1.6l-1.8 5.2a.6.5 21.2 0 1-.7.3q-6.5-2.8-10.7-7.2a2.3 2.3-52 0 1-.4-2.6l11-19.2A3.3 3.3 13.9 0 1 96 281l22.2-.9a.8.8-54.9 0 1 .8.7Z"/><path fill="#9e982c" d="m103.2 310-6-2.6q0-3 6 0a1 1 10 0 1 .5.7q0 .9-.5 1.9Z"/><path fill="#fff579" d="m97.1 307.4 6.1 2.6-10.8 33.4a.6.6-59.5 0 1-1 .2q-2.2-2.1-5.3-2a.6.6 7.5 0 1-.6-.7L97 307.4Z"/><path fill="#b67730" d="M203.3 314.3q.1-1.4-.2-2.4a.7.7 79 0 0-.7-.5l-5.3.2q-.1-1.5.4-2.6a.8.8-77.3 0 1 .7-.5h5a.6.6-87 0 1 .6.7l-.5 5.1Z"/><path fill="#fff579" d="m203.3 314.3-1.6 19.9a1.6 1.6-88.8 0 1-1.5 1.5l-3.5.1a1.4 1.4-88.7 0 1-1.5-1.5l2-22.7 5.2-.2a.7.7 79 0 1 .7.5q.3 1 .2 2.4Z"/><path fill="#fff" d="M201.4 342q-3 1.7-6.7.2l.2-3.7a1.3 1.3-88.8 0 1 1.2-1.2h4.6a1 1-87.1 0 1 1 1.1l-.3 3.7Z"/><path fill="#899398" d="M201.4 342v2.3l-6 .1a.4.4 88 0 0-.5.5l.3 5.4h-.5a.5.5-85.9 0 0-.5.5q-.2 1.3.4 1.3l-.4 7.1q-.5-8.6.5-17 3.8 1.5 6.7-.1Z"/><path fill="#fff" d="M91.1 346.6q-.8.8-.9 2a.3.3-70.3 0 1-.5.2q-2.9-1.8-6.4-1.9l1.2-3a1 1-83.8 0 1 .7-.5q4.4-.9 6 3.2Zm110.2-2.3-.4 5a1 1-15.8 0 1-.4.7q-2.3 1.7-5.3.3l-.3-5.4a.4.4 88 0 1 .4-.5l6-.1Z"/><path fill="#372818" d="M54.5 346.6q-2 1.1-4.6 1.2-3 .1-4 .7-3.2 1.8-5.6 4.4a.6.6-13.7 0 1-1-.6q1.3-3.7 6.2-6 3.7-2.3 9 .3Z"/><path fill="#899398" d="M91.1 346.6q-.3 3-1.6 5.4-1.3-3.6-6.7-3.3.4-.5.5-1.8 3.5.1 6.5 2a.3.3-70.3 0 0 .4-.3q.1-1.2 1-2Z"/><path fill="#fff" d="m89.5 352-1 3.5H88a1.1 1-21.7 0 1-.6-.3q-2.7-2.2-6.3-2.4l1.6-4q5.4-.4 6.7 3.2Zm-33.1 4.1a1 1 29 0 1-1.6.4c-1.7-1-3.8-4.7-2.8-6.6a1.2 1.2 6 0 1 .7-.5q1.4-.4 2.9 0a1.4 1.3 83.3 0 1 .8.7q1.5 2.8 0 6Zm137.8 3.1.4-7.1q3 .3 5.9-.4a.4.4 83.5 0 1 .5.4v15.5a2 2-90 0 1-2 2h-2.3a2.5 2.5-89.8 0 1-2.5-2.4v-8Z"/><path fill="#733236" d="M81.2 352.8q3.6.2 6.3 2.4a1.1 1-21.7 0 0 .6.2h.4q.2.3 0 .5a.2.2 16.9 0 1-.1 0q-1 .1-1.4.7-2.9-3-6.3-1.6-.7-.7.5-2.2Z"/><path fill="#899398" d="m62.7 379.4-3.4 1.3a1 1-47.8 0 1-.6 0l-7.4-2q-8.5-3.6-12.2-12.6c-1.3-3-1.8-8.6 1.5-10.8 4.9-3.2 8.6 2.3 10.3 6.3C53 367 55.6 373.5 59 376l3.7 2.6a.5.5-38 0 1 0 .9Z"/><path fill="#fff" d="m87 356.6.4.8a1 1-49.9 0 1 0 .8l-4.2 13.4a.8.8-60.9 0 1-1.2.3q-2.5-2.2-5.4-3.1a.8.8 19 0 1-.5-1l4.6-12.8q3.4-1.4 6.3 1.6Zm140.6 9.6a4.6 4-73.4 0 1 2.5 5.6 4.6 4-73.4 0 1-5.2 3.3 4.6 4-73.4 0 1-2.6-5.6 4.6 4-73.4 0 1 5.3-3.3Z"/><path fill="#444541" d="M238.3 377.2q-2.4 7.3-8.8 10-6.8 3-14.3 1-1.8-1.2-4-1.8a4.3 4.2-21.7 0 1-.8-.4c-2.5-1.3-6.5-3.3-7.1-4.9a.3.3 89.5 0 1 .4-.4l7 2.6q9.3 3.3 18.5-.2 4.4-1.7 7.3-6a1 .9 11.2 0 1 .6-.5q.9-.1 1.2.6Z"/><path fill="#372818" d="M192.9 379.3c2.5.3 4.6-.4 7-.9q.6-.1.8.5 0 .4-.4.8-3.3 2.7-7.7 2.2t-7-4q-.4-.4-.3-.8.3-.5.9-.2c2.2 1 4.2 2.1 6.7 2.4Z"/><path fill="#481d14" d="m84.7 379.3-.2 4.7a1.4 1.4 69.2 0 1-.4.9l-.2.2a1.4 1.4-19.4 0 0-.3.7q-.2 1.5-1.5 1.8-.5-.6-2 0-1.2.7-1.6.4-.8-.4-1.1-1.4a.6.6 77.3 0 1 .5-.8q5.9-.6 5.7-6.4a.5.5 18.4 0 1 .8-.4l.3.3Z"/><path fill="#899398" d="m59.9 382.3 4-2a.5.5-13.2 0 1 .7.4v1.2a1.2 1.1 74 0 1-.5 1l-4.8 3.2a.5.5 82.3 0 1-.8-.6l.8-2.5a1.2 1.1 86 0 1 .6-.7Z"/><path fill="#854d21" d="M57.6 384q.1-1.7-.9-2.4 1.9 0 .9 2.4Z"/><path fill="#899398" d="m201 382.6 4.4 2.6a.6.6-52.5 0 1 .1.9l-2.9 2.9a.7.7-28.6 0 1-1.2-.4l-1.2-5.5a.5.5-81.3 0 1 .7-.5Z"/><path fill="#481d14" d="m57.3 386 .2-1.8q.8.8-.2 1.8Z"/><path fill="#899398" d="M74.7 391.5a.8.8-18.6 0 1-.6 1.3l-3.6-.2a.7.7 59.3 0 1-.2 0l-10.8-4.4a.5.5 42.7 0 1 0-1l5.1-2.6a1.1 1.1-46.5 0 1 1 0q5.2 2.3 9.1 7Z"/><path fill="#435223" d="M211.6 387.8q-3-1.3-4.6-.9-.3-.1-.1-.3.3-.6 1-.5 1.9.4 3.7 1.7Z"/></svg>